<?xml version="1.0" encoding="utf-8"?>
<!-- Generator: Adobe Illustrator 27.5.0, SVG Export Plug-In . SVG Version: 6.00 Build 0)  -->
<svg version="1.1" id="Layer_1" xmlns="http://www.w3.org/2000/svg" xmlns:xlink="http://www.w3.org/1999/xlink" x="0px" y="0px"
	 viewBox="0 0 150 150" style="enable-background:new 0 0 150 150;" xml:space="preserve">
<style type="text/css">
	.st0{clip-path:url(#SVGID_00000003813431674431045500000006930915088687898029_);}
	.st1{fill:#DA0000;}
	.st2{fill:#FFFFFF;}
	.st3{fill:#239F40;}
	.st4{display:none;fill:none;stroke:#FFFFFF;stroke-width:0.1951;}
	.st5{display:none;}
	.st6{display:inline;fill:#DA0000;}
	.st7{fill:none;stroke:#000000;stroke-width:8.919922e-02;}
	.st8{fill:#FDD116;}
	.st9{fill-rule:evenodd;clip-rule:evenodd;fill:#FDD116;}
	.st10{fill-rule:evenodd;clip-rule:evenodd;stroke:#000000;stroke-width:5.025239e-02;stroke-miterlimit:2.7483;}
	
		.st11{fill-rule:evenodd;clip-rule:evenodd;fill:#FFFFFF;stroke:#000000;stroke-width:0.4523;stroke-linecap:round;stroke-linejoin:round;stroke-miterlimit:2.7483;}
	
		.st12{fill-rule:evenodd;clip-rule:evenodd;fill:#FFFFFF;stroke:#000000;stroke-width:0.5238;stroke-linejoin:round;stroke-miterlimit:2.7483;}
</style>
<g>
	<g>
		<g>
			<defs>
				<path id="SVGID_00000034060108898430688050000014211270241552426897_" d="M77.3,31c-0.3-0.3-0.2-0.2-0.2-0.6
					c0-0.1-0.2-0.8-0.3-0.9c0-0.6-0.3-1.4-0.4-2c0-0.2-0.1-0.4-0.1-0.7l0,0l2.6,0.3l0.3-0.3l0.6,0l0.4-0.1l0.6-0.6
					c0.1-0.1,0.2,0,0.2-0.1c0,0,0.1-0.1,0.1-0.1c0.1,0,0.4-0.2,0.5-0.2c0.2,0,0.3,0.2,0.5,0.2c0.2,0.1,0.4-0.2,0.5-0.4
					c0.1-0.1,0.1-0.3,0.3-0.3c0.1,0,0.2,0,0.2-0.2c0.1-0.2,0.3-1,0.2-1.1c-0.3-0.4,0.2-1.1,0.3-1.5c0.1-0.3,0.4-0.1,0.6-0.4
					c0.1-0.1,0.2-0.3,0.3-0.3c0.3,0,0.2-0.2,0.4-0.4c0.2-0.1,0.3-0.5,0.5-0.7c0.1-0.1,0.3-0.3,0.4-0.4c0.1-0.1,0.2,0,0.3-0.1
					c0.1-0.1,0.1,0,0.2,0c0.1,0,0.2-0.2,0.3-0.3c0.1-0.1,0.3-0.2,0.5-0.2c0.2-0.4,0.8-0.3,1-0.7c0.3-0.6,0.3,0,0.6-0.2
					c0.3-0.3,1.1-0.1,1.5-0.2c0.3-0.1,0.4-0.3,0.6-0.2c0.1,0,0.3-0.1,0.4,0c0.1,0.1,0.2,0.2,0.3,0.2c0.8,0.4,1.4,0.1,2.2,0.1
					c0.2,0,0.5,0.3,0.6,0.3c0.3-0.1,0.8,0,0.8-0.3c0-0.2-0.1-0.8-0.1-0.9c0.3-0.4,0.6-0.8,1-0.9c0.4-0.1,1-0.2,1.2,0.3
					c0.2,0,0.3-0.2,0.4-0.3c0.4,0,0.3-0.1,0.7-0.3c0.1-0.1,0.6,0.5,0.8,0.6c0.4,0.1,0.6,0.1,1,0.1c0.2,0,0.1,0.3,0.4,0.3
					c0.6,0,0.7-0.3,1-0.8c0.3-0.6,1,0.5,1,0.9c0,0.2,0,0.3,0.2,0.4c0.3,0.2,0.5,0.8,0.4,1.2c0,0.3,0,0.4,0.1,0.7h0
					c0,0.1,1,0.6,1.1,0.6c0.1,0,0.4-0.2,0.5-0.2c0.1,0,0.7,0.2,0.9,0.2c0.3-0.1,0.3,0.3,0.5,0.2c0.2-0.1,0.3,0.1,0.4,0.3
					c0.1,0.4,0.4-0.1,0.6,0c0.3,0.2,0.5,0.3,0.8,0.5c0.5,0.3,0.8,0.4,1.4,0.4c0.4,0,0.4,0.9,0.5,1.2c0.6,0.2,1.9,0.8,2.2,0.1
					c0.5-1,1.6,1.1,1.8,0.2l0.1,0c0.4,0.3,0.3-0.3,0.4-0.5c0.3,0,0.6,0.4,0.9,0.4c0.4,0,1.2,0.5,1.5,0.9c0.1,0.1,1,0.7,1.1,0.7
					c0.2,0,0.7-0.3,0.8-0.1c0,0.1,0.1,0.6,0.2,0.6c0.4,0.3-0.1,0.3,0,0.7c0.1,0.4-0.1,0.7,0.3,0.9c0.1,0,0.6,0.6,0.6,0.8
					c0,0.6,0.3,0.2,0.4,0.5c0.1,0.5,0.1,0.3,0.4,0.6c0.4,0.2,0.3,0,0.6,0c0.2-0.1,0.3,0.1,0.5,0.2c0.3,0.2,0.5-0.4,0.9,0.3
					c0.5,0.8,0.9,0.2,1.4,0.6c0.4,0.3,0.5,0.9,0.7,1.4c0.2,0.3,0.2,0.5,0.6,0.7c0.3,0.2,0.2,0.2,0.3,0.5l0.9,1.7l3.8,0l2.4-0.1
					c0.2,0.3,0.4,0.7,0.3,1c-0.1,0.2-0.4,0.7-0.1,0.8c0,0,0,0.1,0,0.1c-0.2,0.1-0.1,0.3-0.1,0.4c0,0.3-0.3,0.4-0.1,0.7
					c0.1,0.1,0,0.3,0,0.4c0,0.2,0.2,0.2,0.2,0.4c0.1,0.7,0.6,1.1,0.3,1.7c-0.1,0.2-0.1,0.6-0.3,0.6c0,0-0.1,0.6-0.2,0.7
					c-0.1,0.1-0.4,0.5,0,0.5c0.4,0,0.5-0.2,0.6,0.3c0.1,0.2,0.3,0.9,0.2,1.1c-0.1,0.1-0.1,0.5-0.1,0.6c0.1,0.3-0.4,0.7-0.1,1.1
					c0.1,0.1,0.2,0.3,0.3,0.5c0.1,0.4,0.1,0.8-0.1,1.1c-0.3,0.5-0.4,0.9-0.6,1.5c-0.1,0.2,0.2,0.7-0.2,0.7c-0.2,0-0.5,0-0.6,0.2
					c-0.1,0.2,0.3,0.4,0.2,0.6c-0.2,0.5,0,0.4,0.2,0.8c0.2,0.4,0.1,0.3-0.1,0.6c-0.2,0.2-0.1,0.3,0,0.5c0.1,0.3-0.2,0.4-0.2,0.7
					c0,0.1-0.1,0.8-0.1,0.8c0,0,0,0,0,0c0.1,0-0.1,0.4-0.1,0.5c0,0,0,0.1,0,0.1l-0.3,0.6c0,0.1,0,0.1,0,0.1c0,0,0,0,0,0c0,0,0,0,0,0
					c-0.4,0.2-0.1,1.7-0.8,1.2c-0.3,0.3-0.1,0.8-0.8,0.8c-0.1,0-0.7,0.2-0.7,0.3c-0.1,0.1,0.5,0.4,0.5,0.4c0.2,0.2,0.1,0.2,0.1,0.4
					c0,0.3,0.2,0.4,0.2,0.7c0,0.1,0.4,0.3,0.4,0.4c0.1,0,0.1,0.3,0.1,0.3l-1.8-0.1l-0.1,0.3l-0.9,0.9l-0.3,1l0.5,2.9l-0.2,0.8l0,0.9
					l0.2,0.5l1,0.6l1.6,0l0.3,0.2l-0.1,0.1l-0.4-0.1l-0.2,0.2l0.1,0.7l-0.3,0.2l-1.4,1.7l-0.4,1.1l0.4,1.2l0.5,2.3l0.2,1.2l0.7,1.7
					l0.2,2l0.3,1.1l-0.3,1.3l-0.2,0.3l0.1,0.5L130,83l0,2.2l0.3,2.5l5.1,0.9l1.5,0.2l0.5,0.7l0,1l0.2,0.2l0.1,0.6l0.2,0.3l0.1,1.2
					l-0.4,0.4c0,0.2,0.1,0.4,0.1,0.6c0.1,0.4-0.4,0.6-0.3,0.9l-6.9,9.3l2.3,3.2l1,1.1c0,0.2,0.2,0.2,0.2,0.3c0.1,0,0.1,0,0.2,0
					c0,0,0,0,0,0c0.1,0.2,0,0.4,0.1,0.6c0.1,0.2-0.1,0.3-0.1,0.5c0.1,0.3,0.5,0.6,0.5,0.8c-0.1,0.2-0.1,0.7,0.2,0.7
					c0.3,0,0.2,0.2,0.3,0.4c0,0.1,0.3,0.2,0.2,0.3c-0.1,0.1-0.3,0.4,0,0.4c0.2,0,0.3,0.3,0.3,0.6l0.8,1.6c0.2,0.3,0.6,0.4,0.7,0.5
					c0.3,0.6,0.3,0.7,0.8,1c0.2,0.1,0.4,0.6,0.6,0.8c0.2,0.2,0.5,0.1,0.7,0.2c0.3,0.1,0.5,0.4,0.9,0.4c0.4,0,0.8,0.3,1.2,0.4
					c0.2,0,0.6,0.1,0.9,0.2c0.3,0.1,0.3,0.3,0.6,0.4c0.3,0,0.3,0.5,0.5,0.8c0.3,0.5,0.3,0.6,0.9,0.5l1.2-0.2l-0.2,2.5l0.5,2.5
					l0.1,2.3c0,0.6,0,1-0.3,1.4c-0.4,0.5,0.6,0.4-0.2,1.1c-0.2,0.2,0.4,0.4,0.4,0.5c0.2,0,0.3,0,0.4-0.2c0,0,0,0,0.1,0
					c0.1,0,0.1,0.2,0.2,0.2c0.1,0,0.2-0.1,0.3-0.1c0.3,0,0.5-0.3,0.8-0.3c0.2,0,0.2,0.1,0.4,0.1c0.1,0,0.4-0.3,0.5-0.2
					c0.3,0.3,0.1,0.3,0.6,0.3c0.2,0,0.6,1,0.5,1c-0.2,0.2-0.4,0-0.6,0.3l0,1.1l0,0.6v0c0,0-0.1,0.1-0.1,0.1c0,0.2,0.3,0.4,0,0.5
					c-0.2,0-0.5,0-0.4,0.3c0.1,0.3-0.1,1,0,1.2c0.4,0.8-1.6,0.4-1.9,0.5c-0.3,0.1-1.4-0.3-1.5,0c-0.1,0.1-0.6,0.5-0.6,0.4
					c-0.4,0-0.4,0.3-0.9,0.3c-0.2,0-0.6-0.1-0.8,0c-0.3,0.1-0.2,0.4-0.4,0.4c-0.6-0.1-0.8,0.3-0.9,0.8c-0.2,0-0.1,1.3-0.2,1.3
					c-0.2-0.1-0.3,0.1-0.3,0.3c0,0.6-1.1-0.3-1.5-0.3c-0.2,0.6-1,0.6-1,0.7c-0.2,0.5-0.2,1.2-0.4,1.7c-0.1,0.2,0.1,0.4,0,0.5
					c-0.1,0.2-0.2,0.3-0.2,0.5c0,0.3,0.5,0.4,0.4,0.7c-0.1,0.2-0.4,0.1-0.3,0.4l0.2,0.7c-0.1,0.2-0.2,0.4-0.5,0.4
					c0,0-0.3-0.2-0.3-0.1c0,0,0,0,0,0c0,0.2-0.4,0.5-0.4,0.5c0,0.2-0.1,0.2-0.2,0.3l-0.1,3.2l-0.3,1.1c-0.4,0-1-0.3-1,0.5
					c0,1-1.9,0.5-2.4,0c-0.3-0.2-0.2-0.5-0.7-0.6c-0.8-0.1-2.2-0.8-3-0.8c-1,0-0.5-0.4-0.8-0.7c0.3-0.1,0-0.8-0.4-0.9
					c-0.3-0.1-1.2,0-1.2,0.5c0,0.3,0.4,0.7,0.4,0.7c-0.1,0.1-0.7-0.1-0.8-0.2c-0.4-0.1-0.3-0.9-0.9-0.5c-0.2,0.1-0.2,0.6-0.4,0.5
					c-0.6-0.3-1-0.6-1.9-0.4c-0.1,0-0.3,0.3-0.4,0.2c-0.1-0.1-0.3-0.3-0.4-0.4c-0.2-0.1-1.2-0.1-1.4,0c-1.1,0.1-1.1-1-2.5-0.6
					c-0.9,0.2-1.9,0.8-2.6,0.2l-1.3-1c-0.1-0.1-2.4-0.6-2.6-0.6c-0.2,0-0.8,0.2-0.9,0.1c-0.3-0.1-0.3-0.4-0.7-0.3
					c-0.4,0.1-1.5,0.8-1.8,0.6c-0.1-0.1-0.8-1-0.8-1.1c-0.2-0.2-0.4-0.2-0.7,0c-0.2-0.1-0.5,0.2-0.6,0.3c-0.3,0.1-0.2-0.3-0.1-0.5
					c0-1.1-3.7,0.2-3.8-1.6c0-0.3-0.3-1.1-0.6-1.2c-0.6-0.1,0-1.4-0.1-1.7c-0.2-0.4-0.6-0.7-0.7-1.2c0-0.2-0.2-0.5-0.2-0.6
					c-0.1,0-0.3-1.1-0.2-1.3c0.2-0.5,0.1-0.9,0-1.4c-0.1-1.1-0.7-1.8-1-2.7c-0.3-0.5,0.2-0.9-0.5-0.9l-0.1-0.6
					c-0.1-0.4-0.3,0-0.4-0.4c-0.1-0.3-1.2-0.5-1.5-0.5c-0.4,0-1.1,0.1-1.4,0c-0.1,0-0.4-0.3-0.5-0.2l-1.5,0.4
					c-0.5,0.1-0.5,0.1-0.7,0.3c0,0.2-0.4,0.5-0.6,0.4c-0.2-0.1-0.4,0.3-0.5,0.5c-0.3,0.4-1.2,0-1.3,0.5c-0.5,0-0.8-0.3-1.2,0.2
					c-0.3,0.4-0.3,0.8-0.5,1.3c-0.4,1.2-1.7,0.2-2.4,0.5c-0.1,0-0.5,0.9-0.7,0.5c-0.4,0.1-0.6,0.7-0.9,0.8c-0.6,0-0.8,0.6-1.3,0.9
					c-0.7,0.4-1.9,0.7-2.4-0.1c-0.4-0.8-1.1,0.1-1.6-0.7c-0.2-0.3-0.4-1-0.8-0.8c-0.6,0.3-0.8,0-1.4,0c-0.9-0.5-0.7,0.1-1.4,0.1
					c-0.5,0-1-0.1-1.4,0.2c-0.3-0.5-1.1-0.8-1.5-1.2c-0.6-0.6-0.2-1.3-1-1.6l-1.4-0.5c-0.4-0.1-1.7-0.6-1.9-0.9
					c-0.3-0.3-1.2-0.5-1.4-0.8c-0.2-0.4-0.6-0.8-1-0.9c0-0.2-0.6-0.7-0.8-0.7c-0.1-0.3,0.2-0.1,0.3-0.3c0.2,0,0.3-0.1,0.4-0.1
					c0,0,0,0,0,0c0-0.4-0.2-0.4-0.5-0.5c-0.3-0.1-0.3-0.7-0.5-0.9c-0.5-0.6-0.9-0.9-1.6-1c-0.9-0.1-1.4-0.7-1.9-1.4
					c-0.2-0.3-2.3-0.3-2.8-0.2c-0.3,0.1-0.4-0.1-0.7-0.2c-0.5,0-0.8-0.5-1.3-0.7c0,0-0.1-0.2-0.1-0.3c-0.1-0.1-0.1-0.1-0.2,0
					c-0.1,0.3-0.3-0.1-0.4-0.3c-0.1-0.3-0.2-1-0.5-1.1c-0.1,0.2-0.1,0.4-0.1,0.6c-0.1,0-0.2-0.6-0.2-0.7c0-0.3-0.2-0.5-0.1-0.8
					c0.1-0.5-0.6-1.6-0.9-2c-0.5-0.6-0.5-1.1-0.6-1.9c0-0.3,0-0.7-0.1-1c-0.1-0.3-0.4-0.5-0.5-0.8c-0.1-0.2,0.1-0.3-0.1-0.4
					c-0.2-0.1-0.5,0-0.8-0.1c-0.4-0.1-0.4-0.6-0.6-0.9c-0.2-0.3,0.3-0.8,0.4-1.2c0-0.1,0.2,0.5,0.2,0.5c0.2,0.1,0.1-0.6,0-0.7
					c-0.2-0.3-0.2-0.6-0.7-0.7c-0.2,0-0.8-0.4-1,0.1c-0.3-0.2-0.2-0.4-0.3-0.8c0-0.2,0-0.3,0-0.4c0-0.1,0.2-0.3,0.2-0.4
					c0.1-0.1-0.1-0.4-0.1-0.6c0-0.2,0-0.5-0.1-0.7c0-0.2-0.4-1-0.5-1c0,0-0.1,0.1-0.1,0.1c-0.2,0-0.4-0.4-0.5-0.6
					c-0.1-0.4-0.4-0.5-0.6-0.8l-0.3-0.3l-0.3-0.4c-0.3-0.3-0.5-0.8-0.8-1.2l-0.8-1c-0.4-0.5,0.2-1.2-0.2-2c-0.4-0.7-0.5-0.7-1.2-0.9
					c-0.3-0.1-0.5,0.3-0.7,0.2l-1.4,1.1c-0.2,0.1-1.1,1.1-1.3,0.8c-0.1-0.1-0.4-0.6-0.3-0.6c0.1-0.1,0.7-0.9,0.1-0.9
					c-0.5,0-1.3-0.2-1.6-0.1c-0.8,0.4-0.1-0.6-1.1-0.8c-0.4-0.1-0.7-0.2-0.9-0.5l-0.7-0.9c-0.2-0.2,0.5-0.3,0.3-0.3
					c-0.2-0.1-0.5,0-0.6,0c-0.1,0.4-0.4,0.5-0.2,1l0.3,0.8c0.2,0.1,0,1.3,0,1.5c-0.3,0.9-0.5,0.3-1,0.5c-1.1-0.4-0.8,0.7-1.2,0.7
					c-0.2,0-0.4-0.2-0.5,0.1c-0.3-0.2-0.8-0.3-1-0.6c-0.2-0.2,0-0.8-0.2-0.9c-0.2-0.1-0.2-0.3-0.2-0.5c0.1-0.1,0.1-0.3,0.1-0.3
					c-0.2-0.3-0.8-1.5-1.2-1.5c-0.1,0-0.5,0.4-0.5,0.1c-0.1,0-0.1-0.8-0.2-0.9C31.6,98,31.2,98,31,97.9l-0.3-0.2l0.1-5.2H28v-4
					l1.3-3.5c0.1-0.1,0.2-0.5,0.1-0.7c-0.1-0.2-0.3-0.2-0.4-0.4c-0.1-0.1,0-0.3,0-0.4c-0.1-0.2-0.3-0.1-0.4-0.4
					c-0.1-0.4-1-1.9-1.3-2c-0.4-0.1-0.2-0.2-0.4-0.5c0.1-0.1,0.1-0.1,0.2-0.2c0.1,0,0.1-0.2,0.1-0.2c0-0.2-0.3-0.5-0.5-0.5
					c0-0.2,0.2-0.4,0-0.4c-0.1-0.1-0.4,0-0.5-0.2c-0.2-0.5,0.1-0.5,0-0.7c-0.2-0.5-1.2-1.3-1.5-0.9c-0.7,0.8-3.7-1.8-3.9-2.6
					c-0.6-0.3-1.1-0.9-1.6-1.4c-0.8-0.7-1.7-1-2.7-1c-0.6,0-1,0.1-1-0.7c0.1,0,0.1,0,0.1,0c0,0,0.1,0,0.1,0c0.8,0-1.5-1-0.4-1
					c0.5,0,1.2-0.3,0.7-0.8c-0.1-0.1,0.1-0.3-0.1-0.6c-0.2-0.2-0.5-0.4-0.6-0.7c-0.1-0.2-0.1-0.6-0.3-0.7c0-0.3-0.2-1.2-0.6-0.9
					c-0.3,0.2-1,0-0.4-0.3c0.5-0.3,0.1-0.4,0-0.7c-0.1-0.4-0.6-0.3-0.9-0.2c-0.5,0.3-0.1,0.1-0.3-0.2c-0.1-0.1-0.6-0.4-0.7-0.6
					c-0.1-0.1-0.4-1-0.4-1.1c-0.2-0.2-0.1-0.4-0.2-0.6c-0.1-0.2-0.3-0.4-0.4-0.6c-0.3-0.5-1,0-0.9-0.7c0.1-0.2,0.5-0.1,0.4-0.6
					c0-0.3,0.2-0.6,0.4-0.8c0.2-0.1,0.4,0,0.3-0.4c-0.1-0.5-0.1-0.3,0.1-0.7c0.1-0.4,0-0.7-0.1-1c-0.1-0.2-0.3-0.3-0.5-0.3
					c-0.3-0.1-0.1-0.3-0.1-0.5c0-0.2-0.6-0.8,0.2-0.7c0.2,0,0.3-0.6,0.2-0.8c0-0.1-0.2-0.6-0.1-0.6c0,0.1,0.6,0.3,0.7,0.4
					c0.3,0.3,0.5,0,0.8,0.2c0.4,0.2,0-1.2,0-1.5c0-0.3-0.7-0.2-0.1-0.8c0.2-0.2,0.2-0.3,0.1-0.6c0.2-0.2,1,0.1,0.7-0.6
					c-0.2-0.7,0.8,0.4,0.6-0.5c0-0.1,0.1-0.1,0.1-0.3c0-0.4-0.4-0.7,0.2-0.9c0.3-0.1,0-0.4,0.1-0.4c0.1,0,0.2,0.1,0.2,0.1
					c0.2,0.1,0.5,0,0.6,0c0.2,0.1,0.4,0.5,0.4-0.1c0,0,0.5-0.1,0.6-0.1c0.4-0.2-0.4-0.6,0.1-0.8c0.5-0.2-0.1-0.6-0.4-0.6
					c0-0.2,0.2-0.3,0.2-0.4c0-0.3-0.1-0.6-0.3-0.8c-0.4-0.4-0.5-0.7-0.8-1.2c-0.2-0.4,0.1-0.6-0.1-1c-0.2-0.4,0-0.2,0.2-0.3
					c0-0.5-0.3-0.4,0-0.9c0.3-0.5,0.4-0.3,0.9-0.3c0.2,0,0.4-0.2,0.5-0.2c0.5,0.1,0.4,0.1,0.8-0.3c0.5-0.5,0.2-0.4,0.1-0.8
					c-0.4,0-1.1,0.8-1.4-0.1c-0.1-0.4-1.4,0.1-1.4,0.2c-0.1,0-0.2-0.1-0.3-0.1c-0.3,0-0.2,0.3-0.4,0.3c-0.1,0-0.3-0.2-0.4-0.1
					c-0.4,0.2-0.4-0.1-0.6-0.5c-0.5-0.8-1.2-1.6-2.1-1.4c-0.9,0.3-0.7,0-0.5-0.7c0.1-0.4-0.1-0.4-0.3-0.7c-0.2-0.3,0-0.8-0.2-1.1
					c0.2-0.2-0.1,0.2-0.2-0.4l-0.1-0.7c0.2-0.2-0.1-0.6-0.2-0.8c-0.2-0.4-0.3-0.2-0.6-0.1c-0.8,0.3-0.6-0.7-1-1
					c-0.6-0.4,0.1-0.5-0.1-0.9c-0.1-0.2,0.3-0.1,0.3-0.4c0-0.3,0-0.7-0.1-0.9c-0.2-0.4-0.5-0.2-0.6-0.4c-0.1-0.1,0-0.4-0.2-0.3
					c-0.2,0.1-0.3-0.1-0.5,0c-0.3,0-0.5,0-0.3-0.4c0.1-0.1,0.2-0.3,0.2-0.4c0,0,0.1-0.1,0.2-0.1c0.1-0.4,0.3-0.5,0-1
					c-0.2-0.3,0.3-0.8-0.1-0.9c-0.2,0-0.3-0.3-0.5-0.1c-0.1,0.1-0.1-0.1-0.2-0.2c-0.1-0.1-0.2-0.1-0.2-0.2c0-0.2-0.3-0.2-0.2-0.4
					l0.2-0.4l0-0.4c-0.1-0.2-0.1-0.3-0.1-0.5c0-0.2,0.2-0.2,0.3-0.3c0.3-0.4-0.2-0.5-0.5-0.7c-0.2-0.1,0.1-0.5-0.2-0.5
					c-0.4-0.1-0.4-0.1-0.5-0.5c-0.6-0.1-0.3-0.3-0.5-0.8c0-0.3,0.5-0.2,0.2-0.7c-0.2-0.2,0.2-0.4-0.1-0.7c-0.6-0.6,0.5-0.6,0.1-1.3
					c-0.2-0.4-0.5-0.5-0.9-0.3c-0.4,0.1-0.5-0.4-0.7-0.7C2.3,21.2,2,21,1.7,21.1c-1.2,0.4-0.1-1.3-0.1-1.6c0.2-0.1,0.1-0.5,0.2-0.6
					c0-0.3,0.2-0.2,0.3-0.4c0.1-0.2-0.2-0.3,0.1-0.3c0.1,0,0.3-0.7,0.3-0.8c0-0.2-0.2-0.5,0.1-0.6c0.2-0.1,0.6-0.3,0.6-0.5
					c0-0.3-0.4-0.7-0.7-0.6c-0.3,0.2-0.3-0.1-0.6,0c-0.4,0.1-0.1-0.4-0.2-0.6c0-0.3-0.3-0.5,0-0.8c-0.1-0.2-0.1-0.8,0.1-1
					c0-0.2,0-0.3-0.1-0.4s-0.4,0.1-0.3-0.4c0.2-0.5-0.4-0.3,0.1-0.9c0.2-0.2-0.2-0.2,0-0.5c0.1-0.2,0.1-0.7-0.2-0.7
					c-0.5,0-0.3-0.6-0.5-0.9C0.8,9.4,1,9.1,0.8,9C0.6,8.8,0.9,8.7,1,8.5c0.1-0.1-0.1-0.3-0.1-0.5C0.8,7.7,1.2,7.8,1,7.4
					c0-0.1-0.3-0.6-0.3-0.6C0.6,6.7,0.4,6.7,0.3,6.7C0,6.5,0.2,6.2,0.1,6C0,5.9,0,5.8,0.1,5.7C0.2,5.5-0.1,5-0.2,4.9
					c-0.2-0.1,0-0.4,0-0.4c0.2-0.4,0.5-0.2,0.6,0C0.6,4.6,1,4.1,1.2,4.2c0,0.1,0.1,0.1,0.1,0.2c0.1,0,0.4,0.2,0.4,0.2
					c0.2-0.1,0.8-0.3,0.9-0.5c0.2-0.3-0.3-0.3,0.1-0.7c0.2-0.2,0.1-0.4,0-0.6C2.6,2.4,3,2.3,3.1,2C3.2,1.6,3,1.3,3.3,1l0.8-0.8
					l0.3,0.7L5.1,1l0.1,0.4l0.4,0.2c0,0.1,0,0.2,0.1,0.3C5.8,2,5.8,2.1,6,2.1c0.1,0,0.3,0,0.3,0.1c0,0,0,0.3,0,0.4c0,0,0,0,0,0
					C6.5,2.7,6.5,3,6.6,3.1c0.1,0.2,0.2,0.2,0.2,0.5c0,0.4,0.1,0.6,0.4,0.7c0.4,0.1,0.4,0.2,0.6,0.6C7.8,5.1,8,5.2,8.1,5.4
					c0.1,0.3,0,0.8,0.3,1.1c0.3,0.2,1.2,0.2,1.4,0.5c0.1,0.3,0.5,0.7,0.5,1c0,0.3,0.4,0,0.4,0.6c0,0.9,0.8,0.5,1.2,0.6
					c0.3,0.1,0.2,0.2,0.6,0.2c0.3,0,0.4,0.3,0.6,0.3c0.4,0,0.5,0,0.8,0.4c0.4,0.4,0.3,0,0.7,0c0.2,0,0.2,0.3,0.6,0.1
					c0.5-0.2,0.5,0.4,1,0.4c0,0,0,0,0.1,0c0.5,0,1-0.8,1.6-0.9c0.3,0,0.3,0.4,0.8,0.2c0.3-0.1,0.5,0.1,0.7,0.1c0.1,0,0.2,0,0.3-0.1
					c0.2-0.1,0.3-0.2,0.4-0.4c0-0.1,0.2-0.3,0.2-0.4c0.1-0.1,0-0.4,0.2-0.5c0.3-0.2,0.5-0.1,0.6-0.5c0.1-0.3,0.2-0.2,0.4-0.4
					C21.5,7.5,21.5,6.9,22,7c0.1,0,0.2,0.3,0.4,0.1c0.1-0.1,0.3-0.3,0.4-0.4C23.1,6.5,23,6.4,23.2,6c0.1-0.2,0.9-0.8,1.1-0.8
					c0.6,0,1-1.3,1.5-1.7c0.2-0.2,0.7-0.1,1-0.3C27,3.2,27,2.9,27.1,2.8c0.1-0.1,0.2-0.1,0.3-0.1c0.2,0.1,0.3-0.4,0.5-0.4
					c0.3,0,0.4-0.1,0.5-0.3c0.2-0.3,0.3-0.4,0.6-0.3c0.1,0,1.1-0.5,1.2-0.7c0,0,0,0,0,0l0.6,0.3l2.5,3.3c-0.1,0.3-0.3,0.2-0.5,0.4
					c-0.3,0.2-0.3,0.1-0.5,0.1c-0.2,0.1-0.6,0.4-0.7,0.6c-0.4,0.7,0.4,0.9,0.6,1.4c0.2,0.4,0.4,0.2,0.6,0.4C32.8,7.6,33,8.1,33,8.2
					c-0.1,0.4,0.1,0.5-0.3,0.8c-0.5,0.4-1.6,0-1.8,0.7c0,0,0,0,0,0c-0.2,0-0.2,0-0.3,0c-0.1,0.3,0.1,1,0.4,1.2
					c0.2,0.1,0.2,0.3,0.3,0.4c0.4,0.3,1.2,0,1.1,0.9c-0.1,0.4,0.3,0.2,0.4,0.6c0.1,0.4,0.3,0.5,0.6,0.4c0.2,0,0.5-0.2,0.6-0.1
					c0,0,0.1,0.3,0.1,0.3c0.1,0.3,0.3,0.1,0.4,0.3c0.1,0.1,0,0.3,0,0.4c0,0.1,0.2,0.1,0.3,0.2c0.5,0.3,0.3,1,0.9,1.1
					c0.3,0,0.5,0,0.7-0.3c0.1-0.2,0.7-0.2,1-0.2c0,0.4,0,0.8,0,1c0,0.8,0.4,1.4,0.3,2.3c-0.1,0.8,0.2,1.5,0.2,2.2
					c-0.1,0.7,0.4,1.7,0.5,2.3c0.2,0.9,1.5,1.6,2.1,2c0.5,0.3,1.1,0.5,1.6,0.6c0.4,0.1,1.4,0,1.7,0.2c0.1,0,0.1,0,0.1,0
					c0,0.1,0.8,0.1,0.9,0.1c0.2,0,0.6-0.3,0.6-0.3c0.5,0.2,0.6,0.7,1.3,0.8c1,0.1,1.1,0.6,1.4,1.6c0.3,1.2,0.5,1.2,1.3,2.1
					c0.2,0.6,1.2,0.9,1.6,1.3c1.4,1.4,3.9,2.5,5.8,2.8c0,0,0.1,0,0.1,0c0.4-0.2,1.6,0.7,2,0.8c0.8,0.3,2.4,0.4,3.2,0.1l3.6-1.1
					c0,0,0.1,0,0.1,0c0.3,0.1,1.9-0.5,2.3-0.6l3.4-1c0.8-0.2,2.3-0.1,3.1-0.5c0.4,0,1.5-0.1,1.8-0.3c0.2-0.1,0.5-0.1,0.6-0.2
					L77.3,31z"/>
			</defs>
			<clipPath id="SVGID_00000059310971330518508620000005597558715082491556_">
				<use xlink:href="#SVGID_00000034060108898430688050000014211270241552426897_"  style="overflow:visible;"/>
			</clipPath>
			<g style="clip-path:url(#SVGID_00000059310971330518508620000005597558715082491556_);">
				<g>
					<rect x="-45.8" y="0.1" class="st1" width="238" height="149.8"/>
					<rect x="-45.8" y="0.1" class="st2" width="238" height="99.9"/>
					<rect x="-45.8" y="0.1" class="st3" width="238" height="49.9"/>
				</g>
				<path class="st4" d="M-42.6,42.4h13.8 M-42.1,47.7v-2.9h4.2v2.3h4.2v-2.3h-2.7 M-40.5,47.1h1.1 M-28.9,47.1h-2.6v-2.3h4.2
					 M-27.3,41.8v5.2h4.2v-5.2 M-25.2,41.8v5.2 M-42.6,50h9.5 M-32,50h9.5 M-42.6,99.9h9.5 M-32,99.9h9.5 M-42.6,102.8h13.8
					 M-42.1,108.1v-2.9h4.2v2.3h4.2v-2.3h-2.7 M-40.5,107.5h1.1 M-28.9,107.5h-2.6v-2.3h4.2 M-27.3,102.3v5.2h4.2v-5.2 M-25.2,102.3
					v5.2 M-21.5,42.4h13.8 M-20.9,47.7v-2.9h4.2v2.3h4.2v-2.3h-2.6 M-19.4,47.1h1.1 M-7.7,47.1h-2.6v-2.3h4.2 M-6.1,41.8v5.2h4.2
					v-5.2 M-4,41.8v5.2 M-21.5,50h9.5 M-10.9,50h9.5 M-21.5,99.9h9.5 M-10.9,99.9h9.5 M-21.5,102.8h13.8 M-20.9,108.1v-2.9h4.2v2.3
					h4.2v-2.3h-2.6 M-19.4,107.5h1.1 M-7.7,107.5h-2.6v-2.3h4.2 M-6.1,102.3v5.2h4.2v-5.2 M-4,102.3v5.2 M-0.3,42.4h13.8 M0.2,47.7
					v-2.9h4.2v2.3h4.2v-2.3H6 M1.8,47.1h1.1 M13.4,47.1h-2.6v-2.3H15 M15,41.8v5.2h4.2v-5.2 M17.1,41.8v5.2 M-0.3,50h9.5 M10.3,50
					h9.5 M-0.3,99.9h9.5 M10.3,99.9h9.5 M-0.3,102.8h13.8 M0.2,108.1v-2.9h4.2v2.3h4.2v-2.3H6 M1.8,107.5h1.1 M13.4,107.5h-2.6v-2.3
					H15 M15,102.3v5.2h4.2v-5.2 M17.1,102.3v5.2 M20.8,42.4h13.8 M21.4,47.7v-2.9h4.2v2.3h4.2v-2.3h-2.6 M23,47.1H24 M34.6,47.1
					h-2.6v-2.3h4.2 M36.2,41.8v5.2h4.2v-5.2 M38.3,41.8v5.2 M20.8,50h9.5 M31.4,50h9.5 M20.8,99.9h9.5 M31.4,99.9h9.5 M20.8,102.8
					h13.8 M21.4,108.1v-2.9h4.2v2.3h4.2v-2.3h-2.6 M23,107.5H24 M34.6,107.5h-2.6v-2.3h4.2 M36.2,102.3v5.2h4.2v-5.2 M38.3,102.3
					v5.2 M42,42.4h13.8 M42.5,47.7v-2.9h4.2v2.3H51v-2.3h-2.6 M44.1,47.1h1.1 M55.7,47.1h-2.6v-2.3h4.2 M57.3,41.8v5.2h4.2v-5.2
					 M59.4,41.8v5.2 M42,50h9.5 M52.6,50h9.5 M42,99.9h9.5 M52.6,99.9h9.5 M42,102.8h13.8 M42.5,108.1v-2.9h4.2v2.3H51v-2.3h-2.6
					 M44.1,107.5h1.1 M55.7,107.5h-2.6v-2.3h4.2 M57.3,102.3v5.2h4.2v-5.2 M59.4,102.3v5.2 M63.1,42.4h13.8 M63.7,47.7v-2.9h4.2v2.3
					h4.2v-2.3h-2.6 M65.3,47.1h1.1 M76.9,47.1h-2.6v-2.3h4.2 M78.5,41.8v5.2h4.2v-5.2 M80.6,41.8v5.2 M63.1,50h9.5 M73.7,50h9.5
					 M63.1,99.9h9.5 M73.7,99.9h9.5 M63.1,102.8h13.8 M63.7,108.1v-2.9h4.2v2.3h4.2v-2.3h-2.6 M65.3,107.5h1.1 M76.9,107.5h-2.6
					v-2.3h4.2 M78.5,102.3v5.2h4.2v-5.2 M80.6,102.3v5.2 M84.3,42.4h13.8 M84.8,47.7v-2.9h4.2v2.3h4.2v-2.3h-2.6 M86.4,47.1h1.1
					 M98,47.1h-2.6v-2.3h4.2 M99.6,41.8v5.2h4.2v-5.2 M101.7,41.8v5.2 M84.3,50h9.5 M94.9,50h9.5 M84.3,99.9h9.5 M94.9,99.9h9.5
					 M84.3,102.8h13.8 M84.8,108.1v-2.9h4.2v2.3h4.2v-2.3h-2.6 M86.4,107.5h1.1 M98,107.5h-2.6v-2.3h4.2 M99.6,102.3v5.2h4.2v-5.2
					 M101.7,102.3v5.2 M105.5,42.4h13.8 M106,47.7v-2.9h4.2v2.3h4.2v-2.3h-2.6 M107.6,47.1h1.1 M119.2,47.1h-2.6v-2.3h4.2
					 M120.8,41.8v5.2h4.2v-5.2 M122.9,41.8v5.2 M105.5,50h9.5 M116,50h9.5 M105.5,99.9h9.5 M116,99.9h9.5 M105.5,102.8h13.8
					 M106,108.1v-2.9h4.2v2.3h4.2v-2.3h-2.6 M107.6,107.5h1.1 M119.2,107.5h-2.6v-2.3h4.2 M120.8,102.3v5.2h4.2v-5.2 M122.9,102.3
					v5.2 M126.6,42.4h13.8 M127.1,47.7v-2.9h4.2v2.3h4.2v-2.3H133 M128.7,47.1h1.1 M140.3,47.1h-2.6v-2.3h4.2 M141.9,41.8v5.2h4.2
					v-5.2 M144.1,41.8v5.2 M126.6,50h9.5 M137.2,50h9.5 M126.6,99.9h9.5 M137.2,99.9h9.5 M126.6,102.8h13.8 M127.1,108.1v-2.9h4.2
					v2.3h4.2v-2.3H133 M128.7,107.5h1.1 M140.3,107.5h-2.6v-2.3h4.2 M141.9,102.3v5.2h4.2v-5.2 M144.1,102.3v5.2 M147.8,42.4h13.8
					 M148.3,47.7v-2.9h4.2v2.3h4.2v-2.3h-2.7 M149.9,47.1h1.1 M161.5,47.1h-2.6v-2.3h4.2 M163.1,41.8v5.2h4.2v-5.2 M165.2,41.8v5.2
					 M147.8,50h9.5 M158.3,50h9.5 M147.8,99.9h9.5 M158.3,99.9h9.5 M147.8,102.8h13.8 M148.3,108.1v-2.9h4.2v2.3h4.2v-2.3h-2.7
					 M149.9,107.5h1.1 M161.5,107.5h-2.6v-2.3h4.2 M163.1,102.3v5.2h4.2v-5.2 M165.2,102.3v5.2 M168.9,42.4h13.8 M169.4,47.7v-2.9
					h4.2v2.3h4.2v-2.3h-2.6 M171,47.1h1.1 M182.7,47.1H180v-2.3h4.2 M184.2,41.8v5.2h4.2v-5.2 M186.4,41.8v5.2 M168.9,50h9.5
					 M179.5,50h9.5 M168.9,99.9h9.5 M179.5,99.9h9.5 M168.9,102.8h13.8 M169.4,108.1v-2.9h4.2v2.3h4.2v-2.3h-2.6 M171,107.5h1.1
					 M182.7,107.5H180v-2.3h4.2 M184.2,102.3v5.2h4.2v-5.2 M186.4,102.3v5.2"/>
				<g class="st5">
					<path class="st6" d="M83.4,79.7c1.9-6.5,0.1-13.7-4.6-18.2c5.2,8.4,3.3,19.7-4.1,25.6l0.5-14v-11c-0.8-0.4-1.5-1.1-2-1.9
						c-0.5,0.8-1.2,1.4-2,1.9v11l0.5,14c-7.4-5.9-9.2-17.2-4.1-25.6C62.9,65.9,61,73.1,63,79.7c1.3,4.4,4.1,7.8,7.6,9.8
						c-2.1,0.9-4.4,1.2-6.7,1.1c2.7,1,5.4,1.1,8,0.5l0,0.6l1.3,2l1.3-2l0-0.6c2.6,0.6,5.3,0.5,8-0.5c-2.3,0.1-4.5-0.3-6.7-1.1
						C79.3,87.5,82.1,84.1,83.4,79.7z"/>
					<path class="st6" d="M88.4,67.8c-1.8-3.4-4.7-5.8-8.1-6.7c7.5,6.2,9,18,3.4,26.2c0,0,0,0,0,0C89.9,83.4,92,74.6,88.4,67.8z"/>
					<path class="st6" d="M66,61.1c-3.4,0.9-6.3,3.4-8.1,6.7c-3.6,6.8-1.5,15.6,4.7,19.5c0,0,0,0,0,0C57,79,58.5,67.3,66,61.1z"/>
					<path class="st6" d="M69.8,60c1.1,0.9,2.6,0.6,3.4-0.7c0.8,1.2,2.3,1.5,3.4,0.7c0.9-0.7,1.3-2.1,0.9-3.2
						c-0.2,1.4-1.5,2.3-2.7,2c-0.7-0.1-1.2-0.6-1.6-1.2c-0.3,0.6-0.9,1.1-1.6,1.2c-1.3,0.3-2.5-0.6-2.7-2C68.5,58,68.8,59.3,69.8,60
						z"/>
				</g>
			</g>
		</g>
	</g>
	<g>
		<path id="SVGID_1_" class="st7" d="M77.3,31c-0.3-0.3-0.2-0.2-0.2-0.6c0-0.1-0.2-0.8-0.3-0.9c0-0.6-0.3-1.4-0.4-2
			c0-0.2-0.1-0.4-0.1-0.7l0,0l2.6,0.3l0.3-0.3l0.6,0l0.4-0.1l0.6-0.6c0.1-0.1,0.2,0,0.2-0.1c0,0,0.1-0.1,0.1-0.1
			c0.1,0,0.4-0.2,0.5-0.2c0.2,0,0.3,0.2,0.5,0.2c0.2,0.1,0.4-0.2,0.5-0.4c0.1-0.1,0.1-0.3,0.3-0.3c0.1,0,0.2,0,0.2-0.2
			c0.1-0.2,0.3-1,0.2-1.1c-0.3-0.4,0.2-1.1,0.3-1.5c0.1-0.3,0.4-0.1,0.6-0.4c0.1-0.1,0.2-0.3,0.3-0.3c0.3,0,0.2-0.2,0.4-0.4
			c0.2-0.1,0.3-0.5,0.5-0.7c0.1-0.1,0.3-0.3,0.4-0.4c0.1-0.1,0.2,0,0.3-0.1c0.1-0.1,0.1,0,0.2,0c0.1,0,0.2-0.2,0.3-0.3
			c0.1-0.1,0.3-0.2,0.5-0.2c0.2-0.4,0.8-0.3,1-0.7c0.3-0.6,0.3,0,0.6-0.2c0.3-0.3,1.1-0.1,1.5-0.2c0.3-0.1,0.4-0.3,0.6-0.2
			c0.1,0,0.3-0.1,0.4,0c0.1,0.1,0.2,0.2,0.3,0.2c0.8,0.4,1.4,0.1,2.2,0.1c0.2,0,0.5,0.3,0.6,0.3c0.3-0.1,0.8,0,0.8-0.3
			c0-0.2-0.1-0.8-0.1-0.9c0.3-0.4,0.6-0.8,1-0.9c0.4-0.1,1-0.2,1.2,0.3c0.2,0,0.3-0.2,0.4-0.3c0.4,0,0.3-0.1,0.7-0.3
			c0.1-0.1,0.6,0.5,0.8,0.6c0.4,0.1,0.6,0.1,1,0.1c0.2,0,0.1,0.3,0.4,0.3c0.6,0,0.7-0.3,1-0.8c0.3-0.6,1,0.5,1,0.9
			c0,0.2,0,0.3,0.2,0.4c0.3,0.2,0.5,0.8,0.4,1.2c0,0.3,0,0.4,0.1,0.7h0c0,0.1,1,0.6,1.1,0.6c0.1,0,0.4-0.2,0.5-0.2
			c0.1,0,0.7,0.2,0.9,0.2c0.3-0.1,0.3,0.3,0.5,0.2c0.2-0.1,0.3,0.1,0.4,0.3c0.1,0.4,0.4-0.1,0.6,0c0.3,0.2,0.5,0.3,0.8,0.5
			c0.5,0.3,0.8,0.4,1.4,0.4c0.4,0,0.4,0.9,0.5,1.2c0.6,0.2,1.9,0.8,2.2,0.1c0.5-1,1.6,1.1,1.8,0.2l0.1,0c0.4,0.3,0.3-0.3,0.4-0.5
			c0.3,0,0.6,0.4,0.9,0.4c0.4,0,1.2,0.5,1.5,0.9c0.1,0.1,1,0.7,1.1,0.7c0.2,0,0.7-0.3,0.8-0.1c0,0.1,0.1,0.6,0.2,0.6
			c0.4,0.3-0.1,0.3,0,0.7c0.1,0.4-0.1,0.7,0.3,0.9c0.1,0,0.6,0.6,0.6,0.8c0,0.6,0.3,0.2,0.4,0.5c0.1,0.5,0.1,0.3,0.4,0.6
			c0.4,0.2,0.3,0,0.6,0c0.2-0.1,0.3,0.1,0.5,0.2c0.3,0.2,0.5-0.4,0.9,0.3c0.5,0.8,0.9,0.2,1.4,0.6c0.4,0.3,0.5,0.9,0.7,1.4
			c0.2,0.3,0.2,0.5,0.6,0.7c0.3,0.2,0.2,0.2,0.3,0.5l0.9,1.7l3.8,0l2.4-0.1c0.2,0.3,0.4,0.7,0.3,1c-0.1,0.2-0.4,0.7-0.1,0.8
			c0,0,0,0.1,0,0.1c-0.2,0.1-0.1,0.3-0.1,0.4c0,0.3-0.3,0.4-0.1,0.7c0.1,0.1,0,0.3,0,0.4c0,0.2,0.2,0.2,0.2,0.4
			c0.1,0.7,0.6,1.1,0.3,1.7c-0.1,0.2-0.1,0.6-0.3,0.6c0,0-0.1,0.6-0.2,0.7c-0.1,0.1-0.4,0.5,0,0.5c0.4,0,0.5-0.2,0.6,0.3
			c0.1,0.2,0.3,0.9,0.2,1.1c-0.1,0.1-0.1,0.5-0.1,0.6c0.1,0.3-0.4,0.7-0.1,1.1c0.1,0.1,0.2,0.3,0.3,0.5c0.1,0.4,0.1,0.8-0.1,1.1
			c-0.3,0.5-0.4,0.9-0.6,1.5c-0.1,0.2,0.2,0.7-0.2,0.7c-0.2,0-0.5,0-0.6,0.2c-0.1,0.2,0.3,0.4,0.2,0.6c-0.2,0.5,0,0.4,0.2,0.8
			c0.2,0.4,0.1,0.3-0.1,0.6c-0.2,0.2-0.1,0.3,0,0.5c0.1,0.3-0.2,0.4-0.2,0.7c0,0.1-0.1,0.8-0.1,0.8c0,0,0,0,0,0
			c0.1,0-0.1,0.4-0.1,0.5c0,0,0,0.1,0,0.1l-0.3,0.6c0,0.1,0,0.1,0,0.1c0,0,0,0,0,0c0,0,0,0,0,0c-0.4,0.2-0.1,1.7-0.8,1.2
			c-0.3,0.3-0.1,0.8-0.8,0.8c-0.1,0-0.7,0.2-0.7,0.3c-0.1,0.1,0.5,0.4,0.5,0.4c0.2,0.2,0.1,0.2,0.1,0.4c0,0.3,0.2,0.4,0.2,0.7
			c0,0.1,0.4,0.3,0.4,0.4c0.1,0,0.1,0.3,0.1,0.3l-1.8-0.1l-0.1,0.3l-0.9,0.9l-0.3,1l0.5,2.9l-0.2,0.8l0,0.9l0.2,0.5l1,0.6l1.6,0
			l0.3,0.2l-0.1,0.1l-0.4-0.1l-0.2,0.2l0.1,0.7l-0.3,0.2l-1.4,1.7l-0.4,1.1l0.4,1.2l0.5,2.3l0.2,1.2l0.7,1.7l0.2,2l0.3,1.1l-0.3,1.3
			l-0.2,0.3l0.1,0.5L130,83l0,2.2l0.3,2.5l5.1,0.9l1.5,0.2l0.5,0.7l0,1l0.2,0.2l0.1,0.6l0.2,0.3l0.1,1.2l-0.4,0.4
			c0,0.2,0.1,0.4,0.1,0.6c0.1,0.4-0.4,0.6-0.3,0.9l-6.9,9.3l2.3,3.2l1,1.1c0,0.2,0.2,0.2,0.2,0.3c0.1,0,0.1,0,0.2,0c0,0,0,0,0,0
			c0.1,0.2,0,0.4,0.1,0.6c0.1,0.2-0.1,0.3-0.1,0.5c0.1,0.3,0.5,0.6,0.5,0.8c-0.1,0.2-0.1,0.7,0.2,0.7c0.3,0,0.2,0.2,0.3,0.4
			c0,0.1,0.3,0.2,0.2,0.3c-0.1,0.1-0.3,0.4,0,0.4c0.2,0,0.3,0.3,0.3,0.6l0.8,1.6c0.2,0.3,0.6,0.4,0.7,0.5c0.3,0.6,0.3,0.7,0.8,1
			c0.2,0.1,0.4,0.6,0.6,0.8c0.2,0.2,0.5,0.1,0.7,0.2c0.3,0.1,0.5,0.4,0.9,0.4c0.4,0,0.8,0.3,1.2,0.4c0.2,0,0.6,0.1,0.9,0.2
			c0.3,0.1,0.3,0.3,0.6,0.4c0.3,0,0.3,0.5,0.5,0.8c0.3,0.5,0.3,0.6,0.9,0.5l1.2-0.2l-0.2,2.5l0.5,2.5l0.1,2.3c0,0.6,0,1-0.3,1.4
			c-0.4,0.5,0.6,0.4-0.2,1.1c-0.2,0.2,0.4,0.4,0.4,0.5c0.2,0,0.3,0,0.4-0.2c0,0,0,0,0.1,0c0.1,0,0.1,0.2,0.2,0.2
			c0.1,0,0.2-0.1,0.3-0.1c0.3,0,0.5-0.3,0.8-0.3c0.2,0,0.2,0.1,0.4,0.1c0.1,0,0.4-0.3,0.5-0.2c0.3,0.3,0.1,0.3,0.6,0.3
			c0.2,0,0.6,1,0.5,1c-0.2,0.2-0.4,0-0.6,0.3l0,1.1l0,0.6v0c0,0-0.1,0.1-0.1,0.1c0,0.2,0.3,0.4,0,0.5c-0.2,0-0.5,0-0.4,0.3
			c0.1,0.3-0.1,1,0,1.2c0.4,0.8-1.6,0.4-1.9,0.5c-0.3,0.1-1.4-0.3-1.5,0c-0.1,0.1-0.6,0.5-0.6,0.4c-0.4,0-0.4,0.3-0.9,0.3
			c-0.2,0-0.6-0.1-0.8,0c-0.3,0.1-0.2,0.4-0.4,0.4c-0.6-0.1-0.8,0.3-0.9,0.8c-0.2,0-0.1,1.3-0.2,1.3c-0.2-0.1-0.3,0.1-0.3,0.3
			c0,0.6-1.1-0.3-1.5-0.3c-0.2,0.6-1,0.6-1,0.7c-0.2,0.5-0.2,1.2-0.4,1.7c-0.1,0.2,0.1,0.4,0,0.5c-0.1,0.2-0.2,0.3-0.2,0.5
			c0,0.3,0.5,0.4,0.4,0.7c-0.1,0.2-0.4,0.1-0.3,0.4l0.2,0.7c-0.1,0.2-0.2,0.4-0.5,0.4c0,0-0.3-0.2-0.3-0.1c0,0,0,0,0,0
			c0,0.2-0.4,0.5-0.4,0.5c0,0.2-0.1,0.2-0.2,0.3l-0.1,3.2l-0.3,1.1c-0.4,0-1-0.3-1,0.5c0,1-1.9,0.5-2.4,0c-0.3-0.2-0.2-0.5-0.7-0.6
			c-0.8-0.1-2.2-0.8-3-0.8c-1,0-0.5-0.4-0.8-0.7c0.3-0.1,0-0.8-0.4-0.9c-0.3-0.1-1.2,0-1.2,0.5c0,0.3,0.4,0.7,0.4,0.7
			c-0.1,0.1-0.7-0.1-0.8-0.2c-0.4-0.1-0.3-0.9-0.9-0.5c-0.2,0.1-0.2,0.6-0.4,0.5c-0.6-0.3-1-0.6-1.9-0.4c-0.1,0-0.3,0.3-0.4,0.2
			c-0.1-0.1-0.3-0.3-0.4-0.4c-0.2-0.1-1.2-0.1-1.4,0c-1.1,0.1-1.1-1-2.5-0.6c-0.9,0.2-1.9,0.8-2.6,0.2l-1.3-1
			c-0.1-0.1-2.4-0.6-2.6-0.6c-0.2,0-0.8,0.2-0.9,0.1c-0.3-0.1-0.3-0.4-0.7-0.3c-0.4,0.1-1.5,0.8-1.8,0.6c-0.1-0.1-0.8-1-0.8-1.1
			c-0.2-0.2-0.4-0.2-0.7,0c-0.2-0.1-0.5,0.2-0.6,0.3c-0.3,0.1-0.2-0.3-0.1-0.5c0-1.1-3.7,0.2-3.8-1.6c0-0.3-0.3-1.1-0.6-1.2
			c-0.6-0.1,0-1.4-0.1-1.7c-0.2-0.4-0.6-0.7-0.7-1.2c0-0.2-0.2-0.5-0.2-0.6c-0.1,0-0.3-1.1-0.2-1.3c0.2-0.5,0.1-0.9,0-1.4
			c-0.1-1.1-0.7-1.8-1-2.7c-0.3-0.5,0.2-0.9-0.5-0.9l-0.1-0.6c-0.1-0.4-0.3,0-0.4-0.4c-0.1-0.3-1.2-0.5-1.5-0.5
			c-0.4,0-1.1,0.1-1.4,0c-0.1,0-0.4-0.3-0.5-0.2l-1.5,0.4c-0.5,0.1-0.5,0.1-0.7,0.3c0,0.2-0.4,0.5-0.6,0.4c-0.2-0.1-0.4,0.3-0.5,0.5
			c-0.3,0.4-1.2,0-1.3,0.5c-0.5,0-0.8-0.3-1.2,0.2c-0.3,0.4-0.3,0.8-0.5,1.3c-0.4,1.2-1.7,0.2-2.4,0.5c-0.1,0-0.5,0.9-0.7,0.5
			c-0.4,0.1-0.6,0.7-0.9,0.8c-0.6,0-0.8,0.6-1.3,0.9c-0.7,0.4-1.9,0.7-2.4-0.1c-0.4-0.8-1.1,0.1-1.6-0.7c-0.2-0.3-0.4-1-0.8-0.8
			c-0.6,0.3-0.8,0-1.4,0c-0.9-0.5-0.7,0.1-1.4,0.1c-0.5,0-1-0.1-1.4,0.2c-0.3-0.5-1.1-0.8-1.5-1.2c-0.6-0.6-0.2-1.3-1-1.6l-1.4-0.5
			c-0.4-0.1-1.7-0.6-1.9-0.9c-0.3-0.3-1.2-0.5-1.4-0.8c-0.2-0.4-0.6-0.8-1-0.9c0-0.2-0.6-0.7-0.8-0.7c-0.1-0.3,0.2-0.1,0.3-0.3
			c0.2,0,0.3-0.1,0.4-0.1c0,0,0,0,0,0c0-0.4-0.2-0.4-0.5-0.5c-0.3-0.1-0.3-0.7-0.5-0.9c-0.5-0.6-0.9-0.9-1.6-1
			c-0.9-0.1-1.4-0.7-1.9-1.4c-0.2-0.3-2.3-0.3-2.8-0.2c-0.3,0.1-0.4-0.1-0.7-0.2c-0.5,0-0.8-0.5-1.3-0.7c0,0-0.1-0.2-0.1-0.3
			c-0.1-0.1-0.1-0.1-0.2,0c-0.1,0.3-0.3-0.1-0.4-0.3c-0.1-0.3-0.2-1-0.5-1.1c-0.1,0.2-0.1,0.4-0.1,0.6c-0.1,0-0.2-0.6-0.2-0.7
			c0-0.3-0.2-0.5-0.1-0.8c0.1-0.5-0.6-1.6-0.9-2c-0.5-0.6-0.5-1.1-0.6-1.9c0-0.3,0-0.7-0.1-1c-0.1-0.3-0.4-0.5-0.5-0.8
			c-0.1-0.2,0.1-0.3-0.1-0.4c-0.2-0.1-0.5,0-0.8-0.1c-0.4-0.1-0.4-0.6-0.6-0.9c-0.2-0.3,0.3-0.8,0.4-1.2c0-0.1,0.2,0.5,0.2,0.5
			c0.2,0.1,0.1-0.6,0-0.7c-0.2-0.3-0.2-0.6-0.7-0.7c-0.2,0-0.8-0.4-1,0.1c-0.3-0.2-0.2-0.4-0.3-0.8c0-0.2,0-0.3,0-0.4
			c0-0.1,0.2-0.3,0.2-0.4c0.1-0.1-0.1-0.4-0.1-0.6c0-0.2,0-0.5-0.1-0.7c0-0.2-0.4-1-0.5-1c0,0-0.1,0.1-0.1,0.1
			c-0.2,0-0.4-0.4-0.5-0.6c-0.1-0.4-0.4-0.5-0.6-0.8l-0.3-0.3l-0.3-0.4c-0.3-0.3-0.5-0.8-0.8-1.2l-0.8-1c-0.4-0.5,0.2-1.2-0.2-2
			c-0.4-0.7-0.5-0.7-1.2-0.9c-0.3-0.1-0.5,0.3-0.7,0.2l-1.4,1.1c-0.2,0.1-1.1,1.1-1.3,0.8c-0.1-0.1-0.4-0.6-0.3-0.6
			c0.1-0.1,0.7-0.9,0.1-0.9c-0.5,0-1.3-0.2-1.6-0.1c-0.8,0.4-0.1-0.6-1.1-0.8c-0.4-0.1-0.7-0.2-0.9-0.5l-0.7-0.9
			c-0.2-0.2,0.5-0.3,0.3-0.3c-0.2-0.1-0.5,0-0.6,0c-0.1,0.4-0.4,0.5-0.2,1l0.3,0.8c0.2,0.1,0,1.3,0,1.5c-0.3,0.9-0.5,0.3-1,0.5
			c-1.1-0.4-0.8,0.7-1.2,0.7c-0.2,0-0.4-0.2-0.5,0.1c-0.3-0.2-0.8-0.3-1-0.6c-0.2-0.2,0-0.8-0.2-0.9c-0.2-0.1-0.2-0.3-0.2-0.5
			c0.1-0.1,0.1-0.3,0.1-0.3c-0.2-0.3-0.8-1.5-1.2-1.5c-0.1,0-0.5,0.4-0.5,0.1c-0.1,0-0.1-0.8-0.2-0.9C31.6,98,31.2,98,31,97.9
			l-0.3-0.2l0.1-5.2H28v-4l1.3-3.5c0.1-0.1,0.2-0.5,0.1-0.7c-0.1-0.2-0.3-0.2-0.4-0.4c-0.1-0.1,0-0.3,0-0.4
			c-0.1-0.2-0.3-0.1-0.4-0.4c-0.1-0.4-1-1.9-1.3-2c-0.4-0.1-0.2-0.2-0.4-0.5c0.1-0.1,0.1-0.1,0.2-0.2c0.1,0,0.1-0.2,0.1-0.2
			c0-0.2-0.3-0.5-0.5-0.5c0-0.2,0.2-0.4,0-0.4c-0.1-0.1-0.4,0-0.5-0.2c-0.2-0.5,0.1-0.5,0-0.7c-0.2-0.5-1.2-1.3-1.5-0.9
			c-0.7,0.8-3.7-1.8-3.9-2.6c-0.6-0.3-1.1-0.9-1.6-1.4c-0.8-0.7-1.7-1-2.7-1c-0.6,0-1,0.1-1-0.7c0.1,0,0.1,0,0.1,0c0,0,0.1,0,0.1,0
			c0.8,0-1.5-1-0.4-1c0.5,0,1.2-0.3,0.7-0.8c-0.1-0.1,0.1-0.3-0.1-0.6c-0.2-0.2-0.5-0.4-0.6-0.7c-0.1-0.2-0.1-0.6-0.3-0.7
			c0-0.3-0.2-1.2-0.6-0.9c-0.3,0.2-1,0-0.4-0.3c0.5-0.3,0.1-0.4,0-0.7c-0.1-0.4-0.6-0.3-0.9-0.2c-0.5,0.3-0.1,0.1-0.3-0.2
			c-0.1-0.1-0.6-0.4-0.7-0.6c-0.1-0.1-0.4-1-0.4-1.1c-0.2-0.2-0.1-0.4-0.2-0.6c-0.1-0.2-0.3-0.4-0.4-0.6c-0.3-0.5-1,0-0.9-0.7
			c0.1-0.2,0.5-0.1,0.4-0.6c0-0.3,0.2-0.6,0.4-0.8c0.2-0.1,0.4,0,0.3-0.4c-0.1-0.5-0.1-0.3,0.1-0.7c0.1-0.4,0-0.7-0.1-1
			c-0.1-0.2-0.3-0.3-0.5-0.3c-0.3-0.1-0.1-0.3-0.1-0.5c0-0.2-0.6-0.8,0.2-0.7c0.2,0,0.3-0.6,0.2-0.8c0-0.1-0.2-0.6-0.1-0.6
			c0,0.1,0.6,0.3,0.7,0.4c0.3,0.3,0.5,0,0.8,0.2c0.4,0.2,0-1.2,0-1.5c0-0.3-0.7-0.2-0.1-0.8c0.2-0.2,0.2-0.3,0.1-0.6
			c0.2-0.2,1,0.1,0.7-0.6c-0.2-0.7,0.8,0.4,0.6-0.5c0-0.1,0.1-0.1,0.1-0.3c0-0.4-0.4-0.7,0.2-0.9c0.3-0.1,0-0.4,0.1-0.4
			c0.1,0,0.2,0.1,0.2,0.1c0.2,0.1,0.5,0,0.6,0c0.2,0.1,0.4,0.5,0.4-0.1c0,0,0.5-0.1,0.6-0.1c0.4-0.2-0.4-0.6,0.1-0.8
			c0.5-0.2-0.1-0.6-0.4-0.6c0-0.2,0.2-0.3,0.2-0.4c0-0.3-0.1-0.6-0.3-0.8c-0.4-0.4-0.5-0.7-0.8-1.2c-0.2-0.4,0.1-0.6-0.1-1
			c-0.2-0.4,0-0.2,0.2-0.3c0-0.5-0.3-0.4,0-0.9c0.3-0.5,0.4-0.3,0.9-0.3c0.2,0,0.4-0.2,0.5-0.2c0.5,0.1,0.4,0.1,0.8-0.3
			c0.5-0.5,0.2-0.4,0.1-0.8c-0.4,0-1.1,0.8-1.4-0.1c-0.1-0.4-1.4,0.1-1.4,0.2c-0.1,0-0.2-0.1-0.3-0.1c-0.3,0-0.2,0.3-0.4,0.3
			c-0.1,0-0.3-0.2-0.4-0.1c-0.4,0.2-0.4-0.1-0.6-0.5c-0.5-0.8-1.2-1.6-2.1-1.4c-0.9,0.3-0.7,0-0.5-0.7c0.1-0.4-0.1-0.4-0.3-0.7
			c-0.2-0.3,0-0.8-0.2-1.1c0.2-0.2-0.1,0.2-0.2-0.4l-0.1-0.7c0.2-0.2-0.1-0.6-0.2-0.8c-0.2-0.4-0.3-0.2-0.6-0.1
			c-0.8,0.3-0.6-0.7-1-1c-0.6-0.4,0.1-0.5-0.1-0.9c-0.1-0.2,0.3-0.1,0.3-0.4c0-0.3,0-0.7-0.1-0.9c-0.2-0.4-0.5-0.2-0.6-0.4
			c-0.1-0.1,0-0.4-0.2-0.3c-0.2,0.1-0.3-0.1-0.5,0c-0.3,0-0.5,0-0.3-0.4c0.1-0.1,0.2-0.3,0.2-0.4c0,0,0.1-0.1,0.2-0.1
			c0.1-0.4,0.3-0.5,0-1c-0.2-0.3,0.3-0.8-0.1-0.9c-0.2,0-0.3-0.3-0.5-0.1c-0.1,0.1-0.1-0.1-0.2-0.2c-0.1-0.1-0.2-0.1-0.2-0.2
			c0-0.2-0.3-0.2-0.2-0.4l0.2-0.4l0-0.4c-0.1-0.2-0.1-0.3-0.1-0.5c0-0.2,0.2-0.2,0.3-0.3c0.3-0.4-0.2-0.5-0.5-0.7
			c-0.2-0.1,0.1-0.5-0.2-0.5c-0.4-0.1-0.4-0.1-0.5-0.5c-0.6-0.1-0.3-0.3-0.5-0.8c0-0.3,0.5-0.2,0.2-0.7c-0.2-0.2,0.2-0.4-0.1-0.7
			c-0.6-0.6,0.5-0.6,0.1-1.3c-0.2-0.4-0.5-0.5-0.9-0.3c-0.4,0.1-0.5-0.4-0.7-0.7C2.3,21.2,2,21,1.7,21.1c-1.2,0.4-0.1-1.3-0.1-1.6
			c0.2-0.1,0.1-0.5,0.2-0.6c0-0.3,0.2-0.2,0.3-0.4c0.1-0.2-0.2-0.3,0.1-0.3c0.1,0,0.3-0.7,0.3-0.8c0-0.2-0.2-0.5,0.1-0.6
			c0.2-0.1,0.6-0.3,0.6-0.5c0-0.3-0.4-0.7-0.7-0.6c-0.3,0.2-0.3-0.1-0.6,0c-0.4,0.1-0.1-0.4-0.2-0.6c0-0.3-0.3-0.5,0-0.8
			c-0.1-0.2-0.1-0.8,0.1-1c0-0.2,0-0.3-0.1-0.4s-0.4,0.1-0.3-0.4c0.2-0.5-0.4-0.3,0.1-0.9c0.2-0.2-0.2-0.2,0-0.5
			c0.1-0.2,0.1-0.7-0.2-0.7c-0.5,0-0.3-0.6-0.5-0.9C0.8,9.4,1,9.1,0.8,9C0.6,8.8,0.9,8.7,1,8.5c0.1-0.1-0.1-0.3-0.1-0.5
			C0.8,7.7,1.2,7.8,1,7.4c0-0.1-0.3-0.6-0.3-0.6C0.6,6.7,0.4,6.7,0.3,6.7C0,6.5,0.2,6.2,0.1,6C0,5.9,0,5.8,0.1,5.7
			C0.2,5.5-0.1,5-0.2,4.9c-0.2-0.1,0-0.4,0-0.4c0.2-0.4,0.5-0.2,0.6,0C0.6,4.6,1,4.1,1.2,4.2c0,0.1,0.1,0.1,0.1,0.2
			c0.1,0,0.4,0.2,0.4,0.2c0.2-0.1,0.8-0.3,0.9-0.5c0.2-0.3-0.3-0.3,0.1-0.7c0.2-0.2,0.1-0.4,0-0.6C2.6,2.4,3,2.3,3.1,2
			C3.2,1.6,3,1.3,3.3,1l0.8-0.8l0.3,0.7L5.1,1l0.1,0.4l0.4,0.2c0,0.1,0,0.2,0.1,0.3C5.8,2,5.8,2.1,6,2.1c0.1,0,0.3,0,0.3,0.1
			c0,0,0,0.3,0,0.4c0,0,0,0,0,0C6.5,2.7,6.5,3,6.6,3.1c0.1,0.2,0.2,0.2,0.2,0.5c0,0.4,0.1,0.6,0.4,0.7c0.4,0.1,0.4,0.2,0.6,0.6
			C7.8,5.1,8,5.2,8.1,5.4c0.1,0.3,0,0.8,0.3,1.1c0.3,0.2,1.2,0.2,1.4,0.5c0.1,0.3,0.5,0.7,0.5,1c0,0.3,0.4,0,0.4,0.6
			c0,0.9,0.8,0.5,1.2,0.6c0.3,0.1,0.2,0.2,0.6,0.2c0.3,0,0.4,0.3,0.6,0.3c0.4,0,0.5,0,0.8,0.4c0.4,0.4,0.3,0,0.7,0
			c0.2,0,0.2,0.3,0.6,0.1c0.5-0.2,0.5,0.4,1,0.4c0,0,0,0,0.1,0c0.5,0,1-0.8,1.6-0.9c0.3,0,0.3,0.4,0.8,0.2c0.3-0.1,0.5,0.1,0.7,0.1
			c0.1,0,0.2,0,0.3-0.1c0.2-0.1,0.3-0.2,0.4-0.4c0-0.1,0.2-0.3,0.2-0.4c0.1-0.1,0-0.4,0.2-0.5c0.3-0.2,0.5-0.1,0.6-0.5
			c0.1-0.3,0.2-0.2,0.4-0.4C21.5,7.5,21.5,6.9,22,7c0.1,0,0.2,0.3,0.4,0.1c0.1-0.1,0.3-0.3,0.4-0.4C23.1,6.5,23,6.4,23.2,6
			c0.1-0.2,0.9-0.8,1.1-0.8c0.6,0,1-1.3,1.5-1.7c0.2-0.2,0.7-0.1,1-0.3C27,3.2,27,2.9,27.1,2.8c0.1-0.1,0.2-0.1,0.3-0.1
			c0.2,0.1,0.3-0.4,0.5-0.4c0.3,0,0.4-0.1,0.5-0.3c0.2-0.3,0.3-0.4,0.6-0.3c0.1,0,1.1-0.5,1.2-0.7c0,0,0,0,0,0l0.6,0.3l2.5,3.3
			c-0.1,0.3-0.3,0.2-0.5,0.4c-0.3,0.2-0.3,0.1-0.5,0.1c-0.2,0.1-0.6,0.4-0.7,0.6c-0.4,0.7,0.4,0.9,0.6,1.4c0.2,0.4,0.4,0.2,0.6,0.4
			C32.8,7.6,33,8.1,33,8.2c-0.1,0.4,0.1,0.5-0.3,0.8c-0.5,0.4-1.6,0-1.8,0.7c0,0,0,0,0,0c-0.2,0-0.2,0-0.3,0c-0.1,0.3,0.1,1,0.4,1.2
			c0.2,0.1,0.2,0.3,0.3,0.4c0.4,0.3,1.2,0,1.1,0.9c-0.1,0.4,0.3,0.2,0.4,0.6c0.1,0.4,0.3,0.5,0.6,0.4c0.2,0,0.5-0.2,0.6-0.1
			c0,0,0.1,0.3,0.1,0.3c0.1,0.3,0.3,0.1,0.4,0.3c0.1,0.1,0,0.3,0,0.4c0,0.1,0.2,0.1,0.3,0.2c0.5,0.3,0.3,1,0.9,1.1
			c0.3,0,0.5,0,0.7-0.3c0.1-0.2,0.7-0.2,1-0.2c0,0.4,0,0.8,0,1c0,0.8,0.4,1.4,0.3,2.3c-0.1,0.8,0.2,1.5,0.2,2.2
			c-0.1,0.7,0.4,1.7,0.5,2.3c0.2,0.9,1.5,1.6,2.1,2c0.5,0.3,1.1,0.5,1.6,0.6c0.4,0.1,1.4,0,1.7,0.2c0.1,0,0.1,0,0.1,0
			c0,0.1,0.8,0.1,0.9,0.1c0.2,0,0.6-0.3,0.6-0.3c0.5,0.2,0.6,0.7,1.3,0.8c1,0.1,1.1,0.6,1.4,1.6c0.3,1.2,0.5,1.2,1.3,2.1
			c0.2,0.6,1.2,0.9,1.6,1.3c1.4,1.4,3.9,2.5,5.8,2.8c0,0,0.1,0,0.1,0c0.4-0.2,1.6,0.7,2,0.8c0.8,0.3,2.4,0.4,3.2,0.1l3.6-1.1
			c0,0,0.1,0,0.1,0c0.3,0.1,1.9-0.5,2.3-0.6l3.4-1c0.8-0.2,2.3-0.1,3.1-0.5c0.4,0,1.5-0.1,1.8-0.3c0.2-0.1,0.5-0.1,0.6-0.2L77.3,31z
			"/>
	</g>
</g>
<g id="layer1" transform="translate(213.9494,414.15711)">
	<g id="g4239" transform="matrix(0.85884262,0,0,0.85884262,-918.4543,38.992074)">
		<path id="path4191" class="st8" d="M921.6-442.6c0,4.8-4.8,5.2-10,5.2s-9-2.1-9-6.9c0-4.8,4.6-8.7,9.8-8.7
			S921.6-447.4,921.6-442.6z"/>
		<path id="path4189" class="st9" d="M892.3-455.2l0.9-1l1.8-1.5l1.4-0.7l0.8-0.3l3.8-0.1l0.7,0.5l1.1,0.9l0.7,0.5l0.5,0.8l1.1,0.6
			l0.6,1.7l-0.5,1.1l0.5,1l0.2,1.3l0.1,3.3l0.6,0.3l1,1l1,0.8l1.1,0.4l0.9,0.2l2.6,0.7h9.2l2.4,0.2l3.8,1.1l2.9,1.5l3.3,1.6l2.4,1.7
			l1.8,0.6l1.6-0.1l0.9-1.3l0-1.4l-0.9-1.2l-2.1-1.6l-2.8-2.1l-2.1-1.8l-1.1-1l-0.9-1.8l-0.4-1.9l0.4-1.2l0.4-1.2l1.7-0.9l1.8-0.3
			l1.9,0.2l1.3,0.5l1.6,0.3l0.9,1l0.8,2l-0.5,0.2l-2-0.4l-1.2-0.8l-0.3-1.7l-2-0.4l-1.6,0.2L933-453l-0.7,1.2l0.1,1.9l1.2,1.8
			l2.2,1.7l2,1.4l2.3,1.4l1.7,1.5l1,1.6l0.5,2.1l-0.4,1.4l-1.3,1.4l-1.5,0.6l-2,0.1l-2.2-0.7l-1.8-0.8l-1.3-0.4l0.3,2.3l-0.5,4.9
			l0.6,2l2.2,1.2l0.8,2.1l-0.2,2.1l-0.2,2.8l-0.4,2.1l-1,1.1l-1.4,0.5l-2,0.1l-1-0.6l-0.3-1.7l-0.1-0.8l1.5-1.8l1.6,0.2l0.2-1.5
			l-0.3-1l-1.5-1.6l-2.8-1.5l-2-2.1l-0.3-0.5l-1,1.1l-1.3,1.6l-0.6,1.8l0.1,1.7l-0.6,1.3l-1.2,2.3l-2.2,2.8l-4.6,0.3l-0.5-1.3
			l0.1-0.7l0.3-1.1l1.5-1.4l1.3,0.4l0.9-0.4l1-1l0-1.6l-0.1-1.8l-0.4-2.7l0.6-2.5l0.2-0.3l-0.9-1.7l-8.4,1.6l-4.5-0.2l-1.7,0l-1.7,1
			l-0.4,1.7l-1.3,1.1L899-424l-1.6,3.5l-0.9,1.5l-0.9,2.2l-2.8,1.7l-4.7-0.1l-0.1-1.2l0.6-1.6l1.2-1.3l1.9-0.2l1-0.1l1.5-3.4
			l1.2-3.7l1.3-3.1l-0.9-0.5l-1.6-0.7l-4.5-1.4l-3-0.4l-2.4,1.1l-0.7,1.5l-1.6,0.3l-0.5-0.8l0.3-1.7l0.2-0.6l-0.7-2.1l0.3-1.6
			l0.9-0.9l2.2,0.2l1.4,1.7l1.5-0.2l4.4,0.6l0.3,0.1l0.7-0.8l-0.9-10.7l-0.1-2.2l-0.4-1.4l0.9-2.3l0.1-1.4L892.3-455.2z"/>
		<path id="path4187" d="M911.8-463.9c0,0-0.1,0-0.1,0l-0.2,0v0.7c0,0.9,0.1,3.3,0.1,4.6c0,0.6,0.1,1.9,0.1,2.9
			c0,1.8,0.1,2.7,0.1,2.7l0,0c0,0,0.1,0,0.1,0c0.2,0,0.1,0.4,0.2-3.4c0-1.5,0-3,0.1-3.4c0-0.4,0-1.5,0-2.4l0-1.7l-0.1,0
			C912-463.9,911.9-463.9,911.8-463.9L911.8-463.9z M908.5-463.6C908.5-463.6,908.5-463.6,908.5-463.6c-0.1,0-0.1,0-0.1,0
			c-0.4,0.1-0.5,0.1-0.4,0.5c0.1,0.3,0.1,0.7,0.2,1c0,0.1,0.1,0.4,0.1,0.6c0,0.2,0.1,0.6,0.2,1c0.1,0.3,0.1,0.7,0.1,0.8
			c0,0.1,0.1,0.3,0.1,0.5c0,0.2,0.1,0.5,0.1,0.8c0.1,0.4,0.2,0.9,0.4,1.9c0.1,0.6,0.1,0.8,0.2,1.4c0.2,1,0.3,1.7,0.3,1.9
			c0,0.1,0,0.2,0,0.3s0,0.2,0.1,0.2c0.1,0.1,0.1,0.1,0.3,0c0.1-0.1,0.1-0.1,0-0.4c0-0.2-0.1-0.5-0.1-0.7c0-0.2-0.1-0.4-0.1-0.5
			c-0.1-0.3-0.2-1.2-0.2-1.8c0-0.2-0.1-0.4-0.1-0.4c0-0.1-0.1-0.2-0.1-0.4c0-0.3-0.1-0.7-0.2-1.4c-0.1-0.8-0.1-1-0.2-1.3
			c0-0.3-0.1-0.9-0.2-1.4c-0.1-0.4-0.2-1.2-0.3-1.6c0-0.2-0.1-0.4-0.1-0.6C908.8-463.5,908.7-463.6,908.5-463.6L908.5-463.6z
			 M915-463.6C915-463.6,915-463.6,915-463.6c-0.1,0-0.1,0-0.1,0.1c0,0.1-0.1,0.7-0.3,2.1c-0.1,0.4-0.1,1-0.2,1.6
			c0,0.2-0.1,0.6-0.1,0.8s-0.1,0.5-0.1,0.7c-0.1,0.7-0.2,1.1-0.2,1.5c0,0.2-0.1,0.6-0.1,0.8s-0.1,0.6-0.1,0.9
			c-0.1,0.7-0.2,1.6-0.3,2.3c0,0.2,0,0.2,0.1,0.2c0.3,0.1,0.3,0.1,0.4-0.6c0-0.2,0.1-0.6,0.1-0.8s0.1-0.5,0.1-0.6c0-0.1,0-0.3,0-0.3
			c0,0,0-0.2,0-0.3s0-0.2,0-0.2c0,0,0-0.2,0.1-0.3c0-0.2,0.1-0.5,0.1-0.8c0.1-0.3,0.1-0.6,0.1-0.8c0-0.2,0.1-0.4,0.1-0.6
			c0-0.2,0.1-0.4,0.1-0.6c0-0.2,0.1-0.4,0.1-0.6c0.1-0.6,0.2-0.9,0.2-1.2c0-0.2,0.1-0.4,0.1-0.6c0-0.2,0.1-0.4,0.1-0.5
			c0-0.1,0-0.2,0.1-0.3c0-0.1,0.1-0.8,0.2-1.4c0-0.1-0.1-0.2-0.4-0.3C915-463.6,915-463.6,915-463.6L915-463.6z M905.3-463.2
			c-0.1,0-0.2,0-0.3,0.1c-0.4,0.1-0.5,0.2-0.4,0.4c0,0.1,0.1,0.2,0.1,0.2s0.1,0.3,0.2,0.5s0.2,0.6,0.3,0.7c0.1,0.2,0.1,0.2,0.3,0.7
			c0.1,0.2,0.2,0.4,0.2,0.5c0.1,0.1,0.1,0.2,0.1,0.3s0,0.2,0.1,0.3s0.2,0.6,0.4,1s0.3,0.9,0.4,0.9c0,0.1,0.1,0.2,0.1,0.4
			s0.1,0.4,0.2,0.4c0.1,0.1,0.1,0.3,0.2,0.5c0,0.1,0.2,0.4,0.3,0.9s0.3,0.9,0.4,1c0,0.1,0.1,0.3,0.1,0.3c0.1,0.2,0.3,0.8,0.4,1.2
			c0.1,0.2,0.2,0.4,0.2,0.5c0.2,0.2,0.3,0,0.2-0.3c-0.2-0.6-0.3-1.1-0.4-1.3c0-0.1-0.1-0.4-0.2-0.6c-0.1-0.2-0.1-0.4-0.2-0.5
			s-0.1-0.3-0.2-0.5c-0.1-0.2-0.2-0.5-0.2-0.6c0-0.1-0.1-0.3-0.1-0.3c0-0.1-0.1-0.2-0.1-0.3c0-0.1-0.1-0.3-0.1-0.3
			c0-0.1-0.1-0.2-0.1-0.3c0-0.1-0.2-0.6-0.4-1.2c-0.2-0.5-0.4-1.2-0.5-1.5c-0.1-0.3-0.2-0.6-0.2-0.8c-0.1-0.1-0.1-0.3-0.1-0.4
			s0-0.1,0-0.2c-0.1-0.2-0.4-1.2-0.5-1.6C905.4-463.1,905.4-463.2,905.3-463.2L905.3-463.2z M918.4-462.5c-0.1,0-0.1,0.1-0.3,0.7
			c-0.1,0.3-0.2,0.6-0.3,0.7s-0.1,0.3-0.1,0.3c0,0,0,0.1-0.1,0.2s-0.1,0.2-0.1,0.3c0,0.1-0.2,0.7-0.4,1.1c0,0.1-0.1,0.2-0.1,0.4
			c-0.1,0.2-0.1,0.4-0.2,0.4s0,0.1,0,0.2s0,0.1,0,0.2c0,0-0.1,0.3-0.2,0.6s-0.2,0.5-0.2,0.6s0,0.1,0,0.1s0,0.1,0,0.2
			s-0.1,0.1-0.1,0.2s-0.1,0.3-0.2,0.5c-0.1,0.2-0.2,0.6-0.3,0.9c-0.1,0.2-0.2,0.5-0.2,0.7c0,0.1-0.1,0.4-0.2,0.5
			c-0.1,0.2-0.1,0.3-0.1,0.4c-0.3,0.9-0.4,0.9-0.3,1c0.2,0.1,0.3,0.1,0.4-0.2c0-0.1,0.1-0.2,0.1-0.4c0-0.1,0.2-0.4,0.2-0.7
			c0.2-0.5,0.2-0.7,0.3-0.8c0,0,0-0.1,0-0.2s0-0.1,0-0.1c0-0.1,0.4-0.9,0.5-1.3c0-0.1,0.1-0.3,0.1-0.3s0-0.1,0-0.2
			c0-0.1,0-0.1,0-0.1c0,0,0-0.1,0-0.1s0-0.1,0-0.1s0.1-0.1,0.1-0.2c0-0.1,0.1-0.3,0.2-0.4c0.1-0.1,0.1-0.2,0.1-0.3c0,0,0-0.1,0-0.1
			c0,0,0.1-0.1,0.1-0.2c0-0.1,0.1-0.2,0.1-0.3c0-0.1,0.1-0.3,0.2-0.4c0-0.1,0.1-0.4,0.2-0.5c0-0.1,0.1-0.3,0.1-0.4
			c0-0.1,0.1-0.2,0.1-0.3s0.1-0.3,0.2-0.5s0.2-0.5,0.2-0.5c0-0.1,0.1-0.2,0.2-0.4c0.1-0.2,0.1-0.3,0.1-0.4s0-0.1,0.1-0.2
			c0-0.2,0-0.2-0.1-0.3C918.7-462.4,918.5-462.5,918.4-462.5C918.4-462.5,918.4-462.5,918.4-462.5z M902.2-461.1
			C902.2-461.1,902.1-461.1,902.2-461.1c-0.1,0.1-0.1,0.1-0.2,0.1c0,0-0.1,0-0.2,0.1c-0.1,0.1-0.1,0.1-0.1,0.2
			c0,0.1,0.1,0.2,0.1,0.2s0,0,0,0.1c0,0,0.1,0.2,0.1,0.3c0.1,0.2,0.2,0.3,0.4,0.7c0.1,0.2,0.3,0.5,0.4,0.7c0.2,0.4,0.2,0.4,0.4,0.4
			c0.1,0,0.1,0,0,0.1c-0.1,0.1-0.1,0.1,0,0.3c0.1,0.1,0.1,0.3,0.1,0.3c0,0,0.1,0.1,0.1,0.2s0.1,0.2,0.2,0.4c0.1,0.1,0.2,0.3,0.3,0.5
			c0.1,0.2,0.2,0.4,0.3,0.4s0.1,0.2,0.1,0.2s0,0.1,0,0.1c0,0,0,0,0,0.1c0,0.1,0,0.1,0.1,0.2c0.1,0.1,0.4,0.1,0.4,0
			c0-0.1-0.7-1.4-0.7-1.4c0,0,0,0,0-0.1s-0.1-0.2-0.1-0.3c-0.1-0.1-0.2-0.3-0.2-0.4s-0.1-0.2-0.1-0.2c0,0-0.1-0.3-0.3-0.5
			c-0.7-1.3-0.8-1.6-0.9-1.7c0-0.1-0.1-0.3-0.2-0.4C902.3-461,902.2-461.1,902.2-461.1z M921.4-461c-0.1,0-0.2,0.2-0.2,0.3
			c0,0.1,0,0.1,0,0.1c0,0-0.1,0.1-0.1,0.1s-0.2,0.4-0.3,0.7s-0.3,0.7-0.4,0.8s-0.1,0.3-0.1,0.3c0,0-0.1,0.2-0.2,0.3
			c-0.2,0.4-0.4,0.8-0.6,1.1c-0.1,0.1-0.2,0.3-0.2,0.5c-0.1,0.1-0.2,0.4-0.2,0.5c-0.1,0.1-0.2,0.3-0.2,0.5c-0.2,0.5-0.5,0.9-0.5,0.9
			c0,0.1-0.1,0.1-0.5,1c-0.1,0.2-0.3,0.5-0.3,0.6s-0.1,0.2-0.1,0.2c0,0-0.1,0.2-0.2,0.3c-0.2,0.3-0.3,0.5-0.5,0.9l-0.1,0.2l0.1,0.1
			c0.1,0.1,0.2,0.1,0.3,0c0-0.1,0.2-0.3,0.4-0.7c0.1-0.2,0.2-0.3,0.2-0.3s0.1-0.1,0.1-0.2c0.1-0.1,0.2-0.3,0.3-0.5
			c0.1-0.2,0.2-0.4,0.3-0.6c0.1-0.2,0.2-0.4,0.2-0.4c0.2-0.4,0.6-1.1,0.6-1.1c0,0,0.1-0.1,0.1-0.2c0-0.1,0.1-0.2,0.1-0.2
			c0,0,0.1-0.1,0.1-0.2c0.1-0.3,0.2-0.4,0.4-0.8c0.1-0.2,0.2-0.4,0.2-0.4c0,0,0-0.1,0-0.1c0,0,0.1-0.1,0.1-0.1
			c0-0.1,0.2-0.3,0.3-0.5c0.1-0.2,0.3-0.4,0.3-0.5s0.1-0.1,0.1-0.3c0.1-0.1,0.1-0.2,0.1-0.3s0.1-0.1,0.1-0.3
			c0.1-0.1,0.1-0.3,0.1-0.3s0-0.1,0-0.1s0.1-0.1,0.1-0.2c0-0.1,0.1-0.2,0.1-0.2c0.1,0,0.3-0.5,0.3-0.6
			C921.9-460.7,921.5-461,921.4-461L921.4-461z M910.5-460.1c-0.1,0-0.1,0-0.2,0l-0.3,0l0,0.3c0.1,1.1,0.3,2.2,0.4,3.4
			c0,0.3,0.1,0.7,0.1,1c0.1,0.8,0.1,1.4,0.2,1.9c0,0.3,0.1,0.5,0.1,0.5c0.1,0.1,0.1,0.1,0.2,0c0.1,0,0.1-0.1,0.1-0.7
			c0-0.3,0-0.8-0.1-1.1c0-0.2,0-0.6,0-0.9c0-0.2,0-0.7,0-1c-0.1-0.6-0.1-1.2-0.1-2.5C910.7-459.9,910.7-460.1,910.5-460.1
			L910.5-460.1z M913-459.9c-0.1,0-0.1,0-0.1,0.1c0,0.1,0,0.5-0.1,0.9s0,1-0.1,1.4c0,0.4-0.1,1.1-0.1,1.6c0,0.5-0.1,1.4-0.1,2
			s-0.1,1,0,1.1c0,0,0.1,0,0.1,0c0.2,0,0.2-0.1,0.4-1.9c0-0.3,0.1-0.7,0.1-0.9c0-0.3,0.1-0.9,0.2-1.9c0.1-0.7,0.1-1.3,0.2-1.8
			c0.1-0.4,0-0.4,0-0.5c-0.1-0.1-0.2-0.1-0.3-0.1C913.1-459.9,913.1-459.9,913-459.9C913-459.9,913-459.9,913-459.9L913-459.9z
			 M907.8-459.5l-0.2,0c-0.3,0-0.3,0-0.1,0.7c0.1,0.3,0.2,0.7,0.2,0.8c0,0.1,0.1,0.3,0.1,0.4s0.1,0.2,0.1,0.4s0.1,0.6,0.2,0.9
			c0.1,0.4,0.2,0.8,0.3,1c0.1,0.2,0.1,0.5,0.2,0.8c0.1,0.2,0.1,0.5,0.1,0.5c0,0.1,0.1,0.5,0.2,0.9c0,0.2,0.1,0.4,0.1,0.4
			c0.1,0.1,0.1,0.1,0.2,0.1c0,0,0.1,0,0.1,0c0,0,0-0.2-0.1-0.6c-0.1-0.5-0.2-0.7-0.4-1.5c-0.2-0.8-0.2-0.9-0.4-1.6
			c-0.2-0.7-0.2-0.8-0.2-1.1c-0.1-0.3-0.1-0.6-0.2-0.8c0-0.1,0-0.2-0.1-0.2c0,0,0-0.1,0-0.2c0-0.1-0.1-0.3-0.1-0.6L907.8-459.5
			L907.8-459.5z M915.9-459.4c-0.2,0-0.3,0.2-0.4,0.7c-0.2,0.8-0.5,2.3-0.7,2.9c-0.1,0.2-0.1,0.6-0.2,0.8c-0.1,0.2-0.1,0.6-0.2,0.8
			c0,0.2-0.1,0.4-0.1,0.5c0,0.1-0.1,0.3-0.1,0.5c-0.1,0.4-0.1,0.5-0.1,0.6c0,0.1,0.2,0.1,0.3,0c0,0,0.1-0.2,0.1-0.4
			c0-0.2,0.1-0.3,0.1-0.4c0,0,0-0.1,0-0.1s0-0.1,0-0.2c0.1-0.2,0.2-0.5,0.2-0.6c0-0.1,0-0.2,0-0.2c0-0.1,0.2-0.6,0.3-1.1
			c0-0.1,0.1-0.3,0.1-0.3c0,0,0.1-0.2,0.1-0.3c0.1-0.3,0.2-0.7,0.4-1.5c0.1-0.3,0.2-0.7,0.3-0.9c0-0.2,0.1-0.4,0.1-0.4
			C916.2-459.2,916.2-459.3,915.9-459.4C915.9-459.4,915.9-459.4,915.9-459.4L915.9-459.4z M899.1-459.1c-0.1,0-0.2,0-0.4,0
			c-0.6,0.1-1.6,0.4-1.7,0.5c0,0,0.1,0.1,0.2,0.3c0.4,0.3,1,1.3,1.2,1.8c0,0.1,0.1,0.2,0.2,0.3c0.1,0.1,0.1,0.1,0.3,0.1
			c0.2,0,0.3-0.1,0.3-0.4c0-0.1,0.1-0.2,0.1-0.3c0.2-0.5,0.3-0.6,0.4-0.7c0.1-0.1,0.1-0.1,0.1-0.1c0-0.1,0.6-0.7,1-0.9
			c0.1-0.1,0.2-0.2,0.2-0.2C901-458.9,900-459.1,899.1-459.1z M924.4-459.1c-0.1,0-0.2,0.1-0.3,0.3c-0.1,0.1-0.2,0.2-0.2,0.3
			s-0.2,0.2-0.3,0.4s-0.2,0.3-0.3,0.4c-0.1,0.1-0.2,0.2-0.3,0.3c-0.1,0.1-0.5,0.6-1.2,1.6c-0.1,0.1-0.2,0.3-0.3,0.4
			c-0.1,0.1-0.2,0.2-0.2,0.2c0,0-0.1,0.1-0.2,0.2s-0.2,0.2-0.3,0.3c-0.1,0.1-0.3,0.4-0.6,0.8c-1.1,1.4-1.3,1.6-1.4,1.8
			c-0.1,0.1-0.2,0.2-0.2,0.3s-0.2,0.2-0.3,0.4c-0.1,0.2-0.3,0.4-0.4,0.4c-0.2,0.2-0.2,0.3-0.1,0.4c0,0,0.1,0.1,0.1,0.1
			c0,0,0.2-0.2,0.4-0.5c0.2-0.2,0.4-0.5,0.4-0.5c0,0,0.2-0.2,0.3-0.4c0.2-0.2,0.4-0.5,0.5-0.6s0.2-0.2,0.3-0.3
			c0.4-0.5,0.7-0.8,0.9-1c0.1-0.1,0.2-0.3,0.2-0.3c0,0,0.2-0.2,0.4-0.5c0.1-0.1,0.2-0.3,0.3-0.4c0.3-0.4,0.9-1,1.1-1.3
			c0.3-0.3,0.6-0.7,1.2-1.4c0.2-0.2,0.4-0.4,0.5-0.6c0.1-0.1,0.2-0.3,0.2-0.3C924.8-458.7,924.5-459.1,924.4-459.1L924.4-459.1z
			 M918.4-458.5c-0.1,0-0.1,0.1-0.3,0.4c-0.1,0.2-0.1,0.3-0.2,0.4c0,0.1-0.1,0.2-0.1,0.2c0,0.1-0.1,0.3-0.3,0.7
			c0,0.1-0.1,0.3-0.1,0.3c0,0.1-0.1,0.2-0.1,0.2c0,0.1-0.1,0.3-0.2,0.5s-0.3,0.6-0.4,0.9c-0.1,0.3-0.2,0.5-0.2,0.5s0,0.1,0,0.1
			c0,0-0.1,0.3-0.2,0.5s-0.2,0.5-0.2,0.5c0,0-0.4,0.9-0.5,1c0,0.1,0,0.1,0,0.2c0,0.1,0.1,0.1,0.1,0.1c0.1,0,1-1.9,1-2
			c0,0,0-0.1,0-0.1c0,0,0.2-0.3,0.4-0.7c0.2-0.4,0.3-0.7,0.4-0.8c0.1-0.1,1-1.9,1.2-2.4c0.1-0.2,0-0.5-0.3-0.6
			C918.4-458.5,918.4-458.5,918.4-458.5L918.4-458.5z M905.2-458.3C905.1-458.3,905.1-458.3,905.2-458.3
			C905.1-458.3,905.1-458.3,905.2-458.3c-0.3,0.1-0.5,0.2-0.5,0.2c0,0,0,0.1,0.1,0.2c0.2,0.3,1.1,2.2,1.1,2.3c0,0,0,0.1,0,0.1
			s0,0,0,0s0.3,0.7,0.7,1.5s0.7,1.6,0.8,1.7s0.2,0.3,0.2,0.4s0.1,0.1,0.1,0c0.1,0,0.1-0.2,0-0.5c-0.1-0.2-0.1-0.3-0.1-0.3
			s0-0.1,0-0.1s0,0,0-0.1s-0.1-0.2-0.2-0.4c-0.1-0.2-0.2-0.4-0.2-0.4c0-0.1-0.1-0.2-0.1-0.3c-0.1-0.1-0.1-0.3-0.1-0.3
			s-0.1-0.1-0.1-0.3c-0.1-0.2-0.2-0.4-0.2-0.6c-0.1-0.2-0.1-0.3-0.1-0.3s0-0.1-0.1-0.2c-0.1-0.3-0.3-0.6-0.4-0.9
			c-0.1-0.2-0.1-0.4-0.2-0.5s-0.1-0.3-0.2-0.4C905.3-458.2,905.2-458.3,905.2-458.3L905.2-458.3z M896.3-458.3c-0.1,0-0.2,0-0.4,0.1
			c-0.2,0-0.7,0.3-0.9,0.6c-0.3,0.3-0.2,0.4,0.1,0.7c0.2,0.1,0.3,0.3,0.4,0.3c0,0,0.2,0.2,0.3,0.4c0.2,0.2,0.3,0.4,0.4,0.5
			c0.1,0.1,0.2,0.3,0.3,0.3c0.1,0.1,0.1,0.2,0.1,0.2c0,0,0,0.1,0.1,0.1c0.1,0.1,0.1,0.1,0.6-0.2c0.5-0.3,0.7-0.4,0.7-0.5
			c0-0.1-0.4-0.9-0.5-1c-0.1-0.1-0.1-0.1-0.1-0.2c0,0,0-0.1-0.1-0.1c0-0.1-0.1-0.2-0.2-0.3s-0.2-0.3-0.4-0.5
			C896.5-458.2,896.5-458.3,896.3-458.3z M901.6-458.3l-0.2,0.1c-0.5,0.3-1.1,1-1.4,1.5c-0.2,0.5-0.2,0.5-0.3,0.7
			c0,0.2,0,0.2,0.2,0.2c0.1,0,0.3,0.1,0.4,0.2s0.2,0.2,0.2,0.2c0,0,0.1,0,0.2,0c0.1,0,0.3-0.3,0.3-0.3c0,0,0-0.1,0.1-0.1
			c0-0.1,0.2-0.2,0.2-0.3c0.2-0.3,0.4-0.5,0.8-0.7c0.2-0.1,0.4-0.3,0.5-0.4l0.2-0.2l-0.3-0.3c-0.2-0.2-0.3-0.3-0.4-0.3s-0.1,0-0.1,0
			c0,0-0.1-0.1-0.3-0.2L901.6-458.3L901.6-458.3z M920.9-457.1c-0.1,0-0.2,0.1-0.3,0.3c0,0.1-0.4,0.7-0.9,1.4
			c-0.5,0.7-0.9,1.4-1,1.6c-0.1,0.1-0.2,0.3-0.2,0.3c0,0,0,0.1-0.1,0.1c-0.1,0.2-0.9,1.4-0.9,1.4c-0.1,0-0.5,0.7-0.4,0.7
			c0,0,0.1,0,0.1,0.1c0.2,0.1,0.2,0.1,0.4-0.3c0.2-0.3,0.7-1,0.8-1.1c0,0,0.2-0.2,0.3-0.4c0.2-0.2,0.3-0.4,0.3-0.5s0.2-0.3,0.4-0.6
			c0.5-0.8,0.9-1.2,1-1.3c0,0,0.1-0.1,0.1-0.1s0-0.1,0.1-0.1c0-0.1,0.1-0.2,0.2-0.3c0.1-0.1,0.2-0.3,0.3-0.4
			c0.1-0.1,0.1-0.2,0.1-0.3C921.2-456.8,921-457.1,920.9-457.1z M894.2-456.9c0,0-0.4,0.2-0.4,0.3c0,0-0.5,0.4-0.6,0.5
			c-0.1,0,0.1,0.2,0.2,0.2c0.1,0,0.5,0.2,0.8,0.4c0.1,0.1,0.3,0.2,0.3,0.3c0.3,0.2,0.8,0.8,0.9,1c0.1,0.1,0.1,0.2,0.2,0.2
			c0.1,0,0.4-0.2,0.6-0.4c0.3-0.3,0.2-0.6-0.5-1.4C895.1-456.2,894.2-456.9,894.2-456.9L894.2-456.9z M903.4-456.9
			c0,0-0.1,0-0.2,0.1c-0.1,0.1-0.3,0.2-0.4,0.3c-0.1,0.1-0.2,0.2-0.2,0.2c-0.1,0-1.2,1.2-1.2,1.3c0,0.1,0.1,0.2,0.2,0.2
			c0.1,0.1,0.3,0.2,0.4,0.4c0.3,0.3,0.4,0.3,0.6,0c0.3-0.5,0.8-0.9,1.4-1.4c0.2-0.1,0.2-0.3-0.1-0.6c-0.1-0.1-0.2-0.3-0.2-0.3
			c0,0-0.1-0.1-0.1-0.1C903.5-456.8,903.5-456.9,903.4-456.9z M926.9-456.5c0,0-0.1,0.1-0.2,0.2c-0.1,0.1-0.2,0.2-0.3,0.3
			s-0.2,0.2-0.3,0.3c-0.2,0.1-0.6,0.5-0.9,0.8c-0.3,0.3-0.8,0.7-0.8,0.8c0,0-0.6,0.6-0.8,0.7c-0.1,0.1-0.2,0.2-0.2,0.2
			c-0.1,0.1-0.3,0.2-0.5,0.4c-0.2,0.2-0.4,0.3-0.4,0.4c-0.1,0.1-0.8,0.7-1.6,1.5c-0.3,0.2-0.7,0.6-0.9,0.8c-0.2,0.2-0.5,0.4-0.6,0.5
			c-0.4,0.4-0.4,0.4-0.3,0.6c0.1,0.1,0.1,0.1,0.3-0.1c0.1-0.1,0.2-0.1,0.2-0.2c0,0,0.2-0.2,0.4-0.3c0.2-0.2,0.4-0.4,0.5-0.4
			c0.7-0.6,1.1-0.9,1.3-1.1c0.1-0.1,0.2-0.2,0.2-0.2c0,0,0.1-0.1,0.2-0.2c0.1-0.1,0.3-0.3,0.5-0.4c0.2-0.2,0.4-0.3,0.5-0.4
			c0.1,0,0.2-0.1,0.3-0.2c0.1-0.1,0.2-0.1,0.2-0.1c0,0,0.1,0,0.1-0.1s0.4-0.3,0.7-0.6c0.7-0.6,0.9-0.7,1.3-1.1
			c0.1-0.1,0.4-0.3,0.5-0.4c0.4-0.3,0.8-0.7,1-0.8l0.2-0.2l-0.2-0.3C927-456.4,926.9-456.5,926.9-456.5L926.9-456.5z M904.9-455.4
			c-0.2,0-0.4,0.1-0.8,0.3c-0.9,0.5-1.1,0.7-1.1,1.3c0,0.3,0,0.4,0.1,0.5c0.4,0.4,0.9,0.4,1.3,0c0.2-0.2,0.3-0.3,0.3-0.6
			c0-0.3-0.2-0.5-0.4-0.5c-0.2,0-0.3,0.1-0.4,0.3c-0.1,0.3-0.2,0.2-0.2,0c0-0.2,0.2-0.5,0.3-0.5c0,0,0.1,0,0.2-0.1
			c0.1,0,0.2-0.1,0.4-0.1c0.4,0,0.5,0.1,0.6,0.5c0.1,0.5,0,0.8-0.4,1.2c-0.2,0.2-0.2,0.2-0.6,0.3c-0.5,0.1-0.7,0.3-0.7,0.5
			c0,0.2,0.2,0.3,0.5,0.5c0.2,0.1,0.4,0.2,0.6,0.3c0.4,0.4,1.2,1,1.2,1.1c0,0.1,0.1,0.1,0.1,0.2c0.1,0,0.1,0,0.1,0
			c0.1,0,0.1-0.2,0-0.8c0-0.8-0.1-0.9-0.2-1c-0.1,0-0.1,0,0,0c0.1,0,0.1-0.1,0-0.1c0,0,0-0.1,0-0.1c0-0.1-0.1-0.2-0.2-0.2
			c-0.2-0.2-0.2-0.2-0.1-0.4c0.1-0.2,0.3-0.5,0.3-0.8c0-0.2,0-0.3,0-0.5c-0.1-0.3-0.2-0.7-0.3-0.7c0,0-0.1-0.1-0.1-0.2
			c-0.1-0.1-0.2-0.2-0.2-0.3C905.2-455.4,905.1-455.4,904.9-455.4L904.9-455.4z M892.9-455.4c-0.4,0-0.7,0.2-0.9,0.7
			c-0.2,0.5-0.1,1,0.2,1.4c0.1,0.1,0.1,0.3-0.1,0.5c-0.2,0.3-0.4,0.7-0.5,1.1c-0.1,0.4-0.1,0.5,0,0.9c0,0.2,0.1,0.5,0.1,0.5
			c0.1,0.1,0.1,0,0.5-0.3c0.3-0.3,0.3-0.3,0.6-0.5c0.1-0.1,0.3-0.2,0.4-0.2c0.1-0.1,0.3-0.2,0.8-0.3l0.3-0.1l0-0.2
			c0-0.1,0-0.3,0.1-0.4l0-0.2H894c-0.5,0-0.8-0.2-1-0.6c-0.1-0.2-0.1-1,0-1.2c0-0.1,0.1-0.2,0.1-0.2c0,0,0.1-0.1,0.1-0.2
			c0.1-0.1,0.2-0.1,0.4-0.1c0.2,0,0.3,0.1,0.4,0.2c0.3,0.3,0.2,0.7-0.1,0.5c-0.1-0.1-0.3-0.1-0.4,0c-0.2,0.2-0.2,0.4,0,0.7
			c0.2,0.2,0.3,0.3,0.6,0.3c0.3,0,0.6-0.3,0.6-0.6c0-0.2,0-0.7-0.1-0.7c0,0,0,0,0-0.1c0-0.2-0.7-0.7-1.3-0.9
			C893.1-455.4,893-455.4,892.9-455.4L892.9-455.4z M923.1-455.2C923.1-455.2,923.1-455.2,923.1-455.2
			C923-455.2,923-455.2,923.1-455.2c-0.1,0.1-1,1.1-1.7,1.8c-0.2,0.2-0.6,0.7-0.9,1c-0.3,0.4-1,1-1.4,1.5c-0.4,0.4-0.7,0.8-0.7,0.8
			c0,0,0,0.1,0.1,0.1s0.1,0.1,0.1,0.1c0,0,1.1-1,2.4-2.4c0.2-0.2,0.5-0.5,0.8-0.7c0.3-0.2,0.6-0.6,0.8-0.8c0.2-0.2,0.5-0.5,0.6-0.6
			c0.1-0.1,0.3-0.3,0.3-0.3c0-0.1-0.1-0.2-0.1-0.2c-0.1-0.1-0.1-0.2-0.1-0.2C923.2-455.2,923.1-455.2,923.1-455.2L923.1-455.2z
			 M935.5-454.8c-0.3,0-0.6,0-0.8,0.1c-0.5,0.1-1.2,0.3-1.4,0.4c-0.4,0.2-1.3,0.9-1.5,1.3c0,0.1-0.1,0.2-0.1,0.2
			c-0.1,0.1-0.4,0.8-0.4,1.1c-0.2,0.7-0.1,1.8,0.1,2.5c0,0.1,0.1,0.2,0.1,0.2c0.2,0.5,0.6,1.2,1.1,1.8c0.4,0.5,1.1,1.2,1.5,1.5
			c0.2,0.1,0.4,0.3,0.5,0.4c0.1,0.1,0.2,0.2,0.3,0.2c0,0,0.1,0.1,0.2,0.2c0.1,0.1,0.3,0.2,0.3,0.2c0.1,0.1,0.7,0.5,0.9,0.7
			c0.1,0.1,0.9,0.7,1.3,1c0.1,0.1,0.2,0.2,0.4,0.3c0.5,0.3,0.6,0.4,0.7,0.5c0.1,0.1,0.4,0.3,0.7,0.5c0.5,0.4,1.3,1.2,1.6,1.5
			c0.2,0.3,0.4,0.7,0.4,1c0,0.4,0,0.8-0.1,1.1c0,0.1-0.1,0.2-0.1,0.2c0,0.1-0.5,0.6-0.7,0.7c-0.1,0.1-0.3,0.1-0.7,0.1h-0.5l-0.7-0.3
			c-0.6-0.3-2.6-1.3-2.8-1.4c0,0-0.3-0.2-0.6-0.4c-0.6-0.4-1-0.6-1.1-0.7c0,0-0.3-0.2-0.5-0.3c-0.3-0.1-0.7-0.4-0.9-0.5
			c-0.2-0.2-0.5-0.3-0.7-0.4c-0.1-0.1-0.6-0.3-1-0.5c-1.1-0.5-1.8-0.8-3-1.2c-0.3-0.1-0.7-0.2-0.9-0.3c-1.1-0.4-1.9-0.6-2.7-0.7
			c-0.1,0-0.2,0-0.4-0.1c-0.3-0.1-0.7-0.1-1.4-0.2c-0.5,0-4.3,0-4.4,0c-0.1,0-2.8,0.1-4,0.1c-0.7,0-1.4,0-1.7-0.1
			c-0.3,0-0.7-0.1-0.9-0.1c-0.2,0-0.6-0.1-0.8-0.1c-0.3-0.1-0.4-0.1-0.4,0c0,0.1-0.1,0.5-0.1,0.9l0,0.3l0.4,0c0.2,0,0.6,0.1,0.8,0.1
			c0.8,0.1,3.8,0,5,0c2.6-0.2,6.8-0.2,7.4-0.1c0.4,0.1,0.5,0.1,0.6,0c0.1-0.1,0.6-0.1,1.5,0.1c0.4,0.1,0.8,0.2,0.9,0.3
			c0.1,0,0.8,0.3,1.3,0.5c0.2,0,0.4,0.1,0.4,0.2s0.2,0.1,0.2,0.1c0.1,0,1,0.4,1.1,0.5c0.1,0.1,0.2,0.1,0.3,0.2
			c0.1,0,0.3,0.1,0.4,0.2c0.1,0.1,0.4,0.2,0.5,0.3c0.2,0.1,0.8,0.5,1.7,1c0.2,0.1,0.3,0.2,0.4,0.2c0.1,0.1,0.7,0.4,1.5,0.8
			c0.4,0.2,0.7,0.4,0.7,0.4c0.3,0.2,1.3,0.8,1.9,1c0.2,0.1,0.4,0.2,0.5,0.2c0.1,0.1,0.2,0.1,0.3,0.1c0,0,0.2,0.1,0.3,0.1
			c0.2,0.1,0.5,0.2,1,0.2c0.6,0.1,0.7,0.1,1,0.1c0.5-0.1,0.8-0.2,1.2-0.6c0.3-0.3,0.3-0.3,0.4-0.7c0.1-0.4,0.1-1.3-0.1-1.7
			c0-0.1-0.1-0.2-0.1-0.3s-0.1-0.2-0.1-0.2c0,0-0.1-0.1-0.1-0.2c-0.1-0.2-1-1.1-1.3-1.4c-0.1-0.1-0.3-0.3-0.5-0.4
			c-0.5-0.4-1.1-0.9-1.5-1.1c-0.2-0.1-0.6-0.5-1.1-0.8c-1.1-0.8-1.5-1.1-1.9-1.5c-0.1-0.1-0.4-0.3-0.6-0.5c-0.2-0.2-0.4-0.3-0.4-0.4
			c0,0-0.3-0.3-0.6-0.6c-0.3-0.3-0.6-0.5-0.6-0.5c-0.1,0-0.2-0.1-0.2-0.2c0-0.1-0.2-0.4-0.3-0.5c0,0,0,0,0-0.1c0,0-0.1-0.2-0.1-0.3
			c-0.1-0.1-0.1-0.3-0.1-0.3s0-0.1,0-0.1s-0.1-0.1-0.1-0.2s-0.1-0.3-0.1-0.3c-0.1-0.2-0.2-0.6-0.2-0.8c0-0.1,0-0.2-0.1-0.2
			c-0.1,0,0-0.2,0.1-0.9c0.1-0.7,0.2-1.1,0.4-1.4c0.1-0.1,0.1-0.2,0.1-0.2c0,0,0.1-0.2,0.3-0.4c0.4-0.4,1.1-0.8,1.5-0.9
			c0.1,0,0.4-0.1,0.6-0.1c0.2,0,0.6-0.1,0.9-0.1c1.1-0.1,2.5,0.2,3.1,0.6c0.3,0.2,0.3,0.2,0.6,0.2c0.4,0,1,0.2,1.2,0.3
			c0.4,0.3,0.6,0.6,0.7,0.8c0.1,0.1,0.2,0.5,0.4,0.8s0.3,0.6,0.3,0.7c0.1,0.2,0.1,0.2-0.2,0.2c-0.1,0-0.3,0-0.4-0.1
			c-0.1,0-0.4-0.1-0.6-0.1c-0.6-0.1-0.9-0.2-1.3-0.4c-0.2-0.2-0.4-0.3-0.5-0.5c-0.1-0.2-0.2-0.3-0.2-0.4s0-0.1,0-0.1
			c0-0.1,0-0.1-0.1-0.6l0-0.5l-0.2-0.1c-0.9-0.6-2.2-0.7-3.8-0.3c-0.3,0.1-1,0.4-1.1,0.5c-0.6,0.4-1,1.1-1.1,1.6
			c-0.1,0.3-0.1,0.8-0.1,1c0.1,0.5,0.2,0.9,0.5,1.5c0.3,0.6,1.4,1.8,2.5,2.5c0.2,0.1,0.5,0.4,0.7,0.5c0.2,0.2,0.5,0.4,0.7,0.5
			c0.4,0.3,1.2,0.7,2,1.3c0.4,0.3,0.9,0.6,1,0.7c0.2,0.1,0.2,0.1,0.5,0.4c0.3,0.3,0.4,0.3,0.8,0.7c0.5,0.4,1.1,1,1.3,1.3
			c0.1,0.1,0.2,0.2,0.2,0.2c0.2,0.2,0.7,1.3,0.7,1.6c0,0.1,0,0.2,0.1,0.3c0.1,0.2,0.1,1.2,0,1.5c-0.1,0.6-0.5,1.3-0.8,1.6
			c-0.1,0.1-0.3,0.2-0.4,0.3s-0.2,0.2-0.2,0.2c0,0-0.1,0-0.2,0.1c-0.1,0.1-0.5,0.2-0.8,0.3c-0.1,0-0.3,0.1-0.4,0.1
			c-0.2,0.1-0.4,0.1-1,0.1c-0.8,0-1.1,0-1.8-0.3c-0.1,0-0.3-0.1-0.4-0.1c-0.4-0.1-2.4-0.8-2.8-1c-0.3-0.1-0.6-0.3-0.7-0.3
			c-0.3-0.2-0.7-0.2-0.8-0.1c-0.2,0.1-0.1,0.5,0,0.9c0.1,0.2,0.1,0.4,0.1,0.4c0,0,0,0.1,0,0.1c0.1,0.1,0.1,0.4,0.2,0.9
			c0.1,0.5,0,1.5-0.1,2.8c-0.1,0.7-0.1,1-0.4,1.8c-0.1,0.5-0.2,0.7-0.1,1c0.1,0.6,0.3,1.2,0.5,1.5c0.2,0.3,0.3,0.7,0.1,0.9
			c-0.1,0-0.2,0.1-0.3,0.1c-0.2,0-0.5-0.2-0.7-0.6c-0.1-0.1-0.2-0.2-0.2-0.2c-0.1-0.1-0.7-1.5-0.8-1.8c-0.1-0.3-0.1-1.8,0-2.2
			c0-0.2,0.1-0.4,0.1-0.6c0-0.2,0.1-0.4,0.1-0.5c0.1-0.5,0.1-0.9,0.1-1.7c0-0.9-0.1-1.4-0.1-1.5c0,0-0.1-0.2-0.1-0.3
			c-0.2-0.8-0.7-2-1-2.4c-0.2-0.3-0.4-0.4-0.6-0.3c-0.2,0.1-0.2,0.3,0.3,1c0.4,0.8,0.6,1.1,0.7,2.2c0.1,0.7,0,2.1-0.3,2.9
			c-0.3,0.9-0.3,1.4-0.3,1.9c0,0.6,0.1,1,0.3,1.6c0.1,0.3,0.8,1.7,0.8,1.7c0,0,0.1,0.2,0.2,0.3c0.2,0.3,0.5,0.7,1,1.1
			c0.1,0.1,0.1,0.1,0.1,0.5c0,0.3,0,0.5,0,0.7c0.1,0.3,0.4,1.1,0.6,1.3c0.2,0.2,0.7,1.1,0.8,1.2c0.1,0.3,0.2,1.2,0.1,1.7
			c-0.1,0.9-0.3,1.3-0.7,1.6c-0.3,0.2-0.4,0.3-1.1,0.1c-0.5-0.1-0.6-0.1-0.8,0.2c-0.1,0.2-0.2,0.6-0.1,0.9c0.1,0.2,0.1,0.2-0.1,0.3
			c-0.1,0.1-0.2,0.3-0.3,0.4c-0.1,0.2-0.1,0.4-0.1,0.7c0,0.3,0,0.5,0,0.5s0.1,0.1,0.1,0.1c0,0,0,0-0.1,0.1l0.5,0.2h3.3l0.1-0.1h0
			l0.1-0.1c0.1-0.1,0.3-0.3,0.4-0.5c0.4-0.5,0.5-0.5,0.7-1c0.2-0.5,0.2-0.5,0.3-1c0.1-0.4,0.1-0.8,0.2-1.2c0-0.2,0.1-0.6,0.2-1.2
			c0-0.1,0-0.3,0.1-0.3s0.1-0.2,0.1-0.4c0-0.2,0-0.5,0.1-0.6c0.1-0.5,0-1-0.1-1.3c-0.1-0.3-0.1-0.9-0.1-1.1c0-0.1,0.1-0.3,0.1-0.6
			c0-0.5-0.1-0.8-0.2-0.9c0,0-0.1-0.1-0.1-0.1c0,0,0-0.1-0.1-0.1c-0.1,0-0.1-0.1-0.1-0.1s0-0.1-0.1-0.1c-0.1,0-0.2-0.1-0.3-0.2
			c-0.1-0.1-0.4-0.2-0.6-0.3c-0.2-0.1-0.5-0.2-0.7-0.3s-0.4-0.2-0.5-0.3c-0.3-0.1-0.4-0.3-0.7-0.8c-0.2-0.3-0.2-0.3-0.2-1
			c0-0.6,0.1-1.1,0.2-1.4c0.1-0.3,0.2-0.8,0.2-1.2c0-0.3,0.1-0.6,0.1-0.7s0-0.7,0-1.4c0-1.1,0-1.2-0.1-1.5c-0.2-0.4-0.1-0.4,0.3-0.3
			c0.2,0.1,0.6,0.2,0.9,0.3s0.7,0.2,0.9,0.3c1.5,0.5,2.8,0.8,3.6,0.8c0.3,0,0.6,0,1-0.1c0.3-0.1,0.6-0.1,0.7-0.2c0,0,0.1,0,0.2-0.1
			c0.2,0,1-0.5,1.1-0.6c0.3-0.3,0.9-0.9,0.9-1c0,0,0-0.1,0.1-0.1c0.4-0.4,0.6-1.8,0.5-2.5c-0.1-0.6-0.2-0.8-0.2-0.9
			c-0.1-0.4-0.3-0.7-0.5-0.9c-0.1-0.1-0.2-0.3-0.2-0.3c0,0,0-0.1,0-0.1c0,0,0,0,0-0.1c0-0.1-1.1-1.2-1.6-1.7
			c-0.2-0.2-0.4-0.4-0.5-0.4c-0.1-0.1-0.2-0.2-0.3-0.2c0,0-0.1,0-0.1,0c0,0-0.1,0,0,0c0,0-0.1-0.1-0.3-0.3c-0.2-0.1-0.5-0.3-0.7-0.5
			s-0.4-0.3-0.4-0.3s-0.2-0.1-0.3-0.2c-0.1-0.1-0.3-0.2-0.3-0.2s-0.1-0.1-0.1-0.1c0,0-0.1,0-0.1-0.1c0,0-0.2-0.1-0.3-0.2
			c-0.1-0.1-0.2-0.1-0.2-0.2c0,0-0.1-0.1-0.3-0.2c-0.3-0.2-0.5-0.3-1-0.7c-0.2-0.2-0.5-0.3-0.5-0.3c0,0-0.6-0.4-0.6-0.5
			c0,0-0.2-0.1-0.3-0.3s-0.5-0.4-0.7-0.7c-0.9-0.9-1-1-1.3-1.8c-0.3-0.7-0.2-1.5,0.1-2.1c0.1-0.1,0.1-0.2,0.1-0.3
			c0-0.1,0.3-0.4,0.6-0.6c0.4-0.3,1-0.6,1.4-0.6c0.2,0,0.4-0.1,0.5-0.1c0.7-0.2,1.9,0,2.4,0.3c0.2,0.1,0.2,0.1,0.2,0.5
			c0,0.5,0.1,0.9,0.3,1.1c0.2,0.4,0.4,0.6,0.8,0.7c0.4,0.2,1.4,0.5,2,0.5c0.1,0,0.5,0,0.8,0.1c0.7,0.1,0.9,0.1,0.9,0
			c0-0.1,0-0.1,0-0.1c0,0-0.1-0.2-0.2-0.4s-0.2-0.3-0.2-0.4c0,0-0.5-1-0.6-1.4c-0.1-0.1-0.1-0.3-0.2-0.3s-0.2-0.2-0.3-0.4
			s-0.2-0.3-0.3-0.3s-0.1,0-0.1-0.1c0,0-0.3-0.2-0.5-0.3l-0.4-0.2l-0.6,0c-0.5,0-0.6,0-0.7-0.1c-0.2-0.1-1.1-0.4-1.7-0.5
			C936.5-454.8,936-454.8,935.5-454.8L935.5-454.8z M928.7-453.5l-0.2,0.1c-0.1,0.1-0.3,0.1-0.3,0.2c-0.2,0.1-0.9,0.6-1.2,0.8
			c-0.4,0.2-1.5,1-1.8,1.1c-0.1,0.1-0.5,0.3-0.8,0.5c-0.4,0.2-0.7,0.5-0.8,0.5c-0.1,0.1-0.3,0.2-0.3,0.2c-0.1,0-0.3,0.1-0.4,0.2
			c-0.1,0.1-0.3,0.2-0.4,0.3c-0.1,0.1-0.4,0.2-0.5,0.3c-0.2,0.1-0.4,0.2-0.4,0.2c0,0-0.2,0.1-0.4,0.3s-0.5,0.3-0.7,0.4
			c-0.5,0.2-0.4,0.2-0.3,0.4c0,0.1,0.1,0.1,0.2,0.1s0.7-0.4,1.5-0.8c0.8-0.4,1.6-0.9,1.8-1c0.2-0.1,0.7-0.4,0.9-0.5
			c0.3-0.2,0.8-0.4,1.1-0.6s1.1-0.6,1.7-1c1.5-0.9,1.5-0.8,1.7-0.9c0.2-0.1,0.2-0.1,0.2-0.2c0-0.1-0.1-0.2-0.2-0.4L928.7-453.5z
			 M939.1-453.3c-0.2,0-0.3,0.2-0.3,0.5c0,0.3,0,0.3,0.2,0.6c0.2,0.3,0.8,0.8,1,0.8c0,0,0.1,0,0.1,0.1c0,0,0.2,0.1,0.3,0.1
			c0.1,0,0.3,0,0.5,0c0.2,0,0.2,0,0.2-0.2c0-0.1,0-0.2-0.1-0.2s0-0.1,0-0.1c0-0.1-0.2-0.5-0.4-0.8c-0.3-0.5-0.7-0.7-1.2-0.8
			C939.4-453.3,939.3-453.3,939.1-453.3C939.2-453.3,939.1-453.3,939.1-453.3L939.1-453.3z M906.1-453.3c0,0-0.1,0.1-0.1,0.1
			c-0.1,0.1,0,0.1,0.5,1.1c0.1,0.1,0.2,0.4,0.3,0.5c0.1,0.3,0.2,0.3,0.3,0.2c0.1-0.1,0.1-0.1,0-0.2c0-0.1-0.1-0.1-0.1-0.2
			c0,0,0-0.1-0.1-0.2c0-0.1-0.2-0.4-0.4-0.7C906.3-453.1,906.1-453.3,906.1-453.3L906.1-453.3z M924.9-452.9
			C924.9-452.9,924.8-452.9,924.9-452.9c-0.1,0.1-0.2,0.2-0.4,0.3s-0.5,0.4-0.7,0.5c-0.2,0.1-0.4,0.3-0.6,0.4
			c-0.1,0.1-0.3,0.2-0.4,0.3c-0.1,0.1-0.2,0.1-0.2,0.2c-0.1,0-0.3,0.2-0.5,0.4c-0.2,0.2-0.6,0.4-0.8,0.6s-0.5,0.3-0.5,0.4
			c-0.2,0.1-0.7,0.5-1.1,0.8c-0.2,0.1-0.3,0.2-0.3,0.3c0,0,0,0.1,0.1,0.1c0.1,0.1,0.2,0.1,0.5-0.1c0.2-0.1,0.4-0.3,0.5-0.3
			c0.1-0.1,0.4-0.3,0.7-0.5c0.3-0.2,0.5-0.4,0.6-0.4c0.1,0,0.2-0.1,0.3-0.2c0.1-0.1,0.2-0.2,0.2-0.2c0,0,0.2-0.2,0.5-0.3
			c0.3-0.2,0.5-0.4,0.6-0.4c0.1,0,0.2-0.1,0.2-0.2c0.1-0.1,0.2-0.2,0.4-0.3c0.2-0.1,0.4-0.3,0.5-0.3c0.1-0.1,0.3-0.2,0.4-0.2
			c0.4-0.2,0.4-0.2,0.3-0.4C925-452.9,925-452.9,924.9-452.9L924.9-452.9z M900.5-452.2c-0.1,0-0.2,0-0.2,0.1
			c-0.1,0.1-0.2,0.2,0,0.3c0.1,0.1,0.1,0.2,0.1,0.7c0,0.3,0,0.6,0,0.6c0,0,0,0,0.1,0c0,0,0.2,0,0.3-0.1c0.4-0.1,1.1-0.5,1.1-0.7
			c0-0.1,0.2-0.4,0.3-0.5c0.1,0,0.1-0.1,0.1-0.1c0-0.1,0-0.1-0.2,0c-0.1,0.1-0.3,0.1-0.3,0.1c-0.1,0-0.5-0.2-0.8-0.3
			C900.6-452.1,900.5-452.2,900.5-452.2L900.5-452.2z M897.6-451.9c0,0-0.1,0-0.1,0c-0.1,0-0.2,0-0.5,0c-0.4-0.1-0.8,0-1,0.2
			c0,0-0.1,0.1-0.1,0.1c-0.1,0-0.1,0.4,0,0.5c0,0,0.2,0.1,0.3,0.1s0.3,0,0.3,0.1c0.1,0,0.2,0.1,0.2,0.1c0.1,0,0.2,0.1,0.3,0.2
			c0.1,0.1,0.2,0.2,0.3,0.2c0.2,0.1,0.2,0.1,0.3,0c0.1,0,0.1-0.1,0-0.1c0-0.1-0.1-0.2-0.1-0.4c0-0.2,0-0.4,0-0.5
			c0-0.1,0-0.2,0.1-0.3C897.6-451.8,897.6-451.9,897.6-451.9L897.6-451.9z M903.6-450.9l-0.1,0.2c-0.1,0.2-0.2,0.8-0.1,1
			c0,0.2,0.2,0.3,0.6,0.4c0.2,0,0.3,0.1,0.4,0.2c0.2,0.2,0.3,0.5,0.3,2.2c0,0.8,0,2,0.1,2.5c0,0.5,0,1.9,0,3.1c0,1.2,0,2.2,0.1,2.2
			c0,0.1,0.2,0.1,0.4-0.1c0.2-0.2,0.6-0.5,0.6-0.6c0,0,0-0.1,0.1-0.2c0.2-0.3,0.2-0.6,0.1-6.5c0-1.2-0.1-2.1-0.2-2.1
			c0,0,0-0.1,0-0.1c0-0.1-0.2-0.4-0.4-0.9c-0.1-0.2-0.6-0.7-0.8-0.8c-0.1,0-0.2-0.1-0.3-0.2c-0.1-0.1-0.2-0.1-0.5-0.2L903.6-450.9z
			 M894-450.9c-0.4,0-1.2,0.4-1.7,1c-0.2,0.2-0.5,0.7-0.6,1.1c-0.2,0.6-0.2,0.6-0.1,1.8c0,0.6,0,1.3,0.1,1.6
			c0.1,1.9,0.1,2.7,0.1,3.8c0,1.3,0,1.5,0.2,2.5c0.2,0.7,0.2,0.8,0.3,1.2c0.1,0.3,0.1,0.5,0.3,1c0.1,0.4,0.2,0.6,0.3,0.8h0
			c0.1,0.1,0.1,0.1,0.2,0.1c0.1,0,0.1-0.2,0.1-2.1c0-1.2,0-2.2,0-2.3c0-0.1,0-0.3,0-0.4c0-0.4,0-3.1-0.1-4.1c0-0.5,0-1.2,0-1.5
			s0-0.6,0-0.6c0-0.4,0-1.4,0-1.5c0.1-0.3,0.6-0.7,0.9-0.8c0.2-0.1,0.3-0.1,0.3-0.2c0.1-0.1,0.1-1,0-1.1
			C894.1-450.8,894-450.9,894-450.9L894-450.9z M930.2-450.3c-0.1,0-0.4,0.1-1.3,0.5c-0.3,0.1-0.8,0.3-1.2,0.5
			c-0.3,0.1-0.9,0.3-1.3,0.5s-0.9,0.3-1.1,0.4c-0.4,0.1-0.5,0.2-1.4,0.5c-0.2,0.1-0.4,0.1-0.4,0.2c-0.1,0-0.3,0.1-0.5,0.2
			c-0.2,0.1-0.6,0.2-0.7,0.3s-0.6,0.2-0.9,0.3c-0.3,0.1-0.6,0.2-0.7,0.3c-0.2,0.1-0.2,0.1,0,0.4c0,0,0.1,0.1,0.1,0
			c0,0,0.3-0.1,0.5-0.2c0.2-0.1,0.5-0.2,0.5-0.2c0.1,0,0.5-0.2,0.9-0.3c0.8-0.3,2.1-0.8,3.4-1.2c0.7-0.3,2.7-1,3.5-1.2
			c0.9-0.3,0.9-0.3,0.7-0.7C930.4-450.2,930.3-450.3,930.2-450.3z M926.3-450.2c-0.1,0-0.3,0.1-1.7,0.8c-0.3,0.2-0.8,0.4-0.9,0.5
			c-0.2,0.1-0.6,0.3-0.9,0.4c-0.3,0.2-0.6,0.3-0.6,0.3c0,0-0.2,0.1-0.5,0.2s-0.7,0.3-1,0.5c-0.5,0.2-0.5,0.3-0.4,0.5
			c0,0,0.1,0.1,0.1,0c0,0,0.2-0.1,0.5-0.2s0.5-0.2,0.7-0.3s0.5-0.2,0.7-0.3c0.2-0.1,0.5-0.2,0.7-0.3c0.2-0.1,0.5-0.2,0.8-0.4
			c0.3-0.1,0.6-0.3,0.7-0.3c0.1,0,0.3-0.1,0.4-0.2c0.2-0.1,0.3-0.1,0.4-0.2c0.1,0,0.3-0.2,0.6-0.3c0.5-0.2,0.5-0.2,0.5-0.3
			C926.5-450,926.4-450.2,926.3-450.2z M901.3-450.2c-0.1,0-0.2,0.1-0.4,0.4c-0.1,0.2-0.2,0.3-0.3,0.3c0,0-0.1,0.1,0,0.1
			c0,0.1,0.2,0.1,0.2,0c0,0,0.2-0.1,0.4-0.2c0.2-0.1,0.4-0.2,0.4-0.3C901.6-449.9,901.4-450.2,901.3-450.2L901.3-450.2z
			 M896.5-450.1c-0.1,0-0.1,0.1-0.2,0.2c-0.1,0.2-0.1,0.3,0.1,0.4c0.1,0,0.2,0.1,0.4,0.1c0.2,0.1,0.4,0.1,0.4,0c0,0-0.1-0.1-0.2-0.2
			s-0.3-0.3-0.4-0.3C896.6-450.1,896.5-450.1,896.5-450.1z M899.9-449.7c0,0-0.1,0-0.1,0.1c-0.1,0.1-0.1,0.1-0.1,0.2
			c0,0,0,0.2,0.1,0.4c0,0.2,0,0.3-0.1,0.5c-0.1,0.2-0.1,0.2-0.4,0.2c-0.2,0-0.3,0-0.4,0c0,0-0.1,0-0.2,0c-0.1,0-0.2-0.1-0.3-0.1
			c-0.3,0-0.4-0.2-0.3-0.7c0-0.5,0-0.5-0.3-0.2c-0.2,0.3-0.4,0.8-0.4,1.2c0,0.3,0,0.3,0.2,0.5c0.1,0.1,0.2,0.2,0.3,0.2
			c0.2,0,0.3-0.1,0.2-0.2c0,0,0-0.1,0-0.1c0.1-0.1,0.2-0.1,0.3,0c0.1,0.1,0.1,0.2,0.2,0.4c0,1-0.1,1.3-0.9,1.3c-0.3,0-0.4,0-0.5-0.1
			c-0.3-0.2-0.4-0.6-0.3-1.1c0.1-0.5,0-0.6-0.3-0.6c-0.3,0-0.4,0.2-0.4,0.6c0,0.8,0.5,1.5,1.2,1.6c0.2,0,0.6,0,0.9-0.2
			c0.4-0.2,0.7-0.2,0.9-0.1c0.2,0.1,0.7,0.2,1,0.2c0.4,0,0.7-0.1,0.9-0.3c0.2-0.2,0.2-0.3,0.3-1.3c0-0.3-0.1-0.4-0.5-0.3
			c-0.2,0-0.2,0.1-0.1,0.5c0.2,0.9-0.3,1.3-1.2,0.9c-0.5-0.2-0.6-0.2-0.6-0.7c0-0.3,0-0.4,0.1-0.5c0.1-0.1,0.4-0.3,0.4-0.2
			c0,0,0,0.1-0.1,0.1c-0.1,0-0.1,0.2,0,0.2c0.4,0,0.6-0.1,0.8-0.3c0.2-0.3,0.3-0.6,0.2-1c0,0,0-0.1,0-0.2c0-0.2-0.2-0.4-0.3-0.6
			C900-449.7,900-449.7,899.9-449.7L899.9-449.7z M896.1-449.3C896.1-449.3,896.1-449.3,896.1-449.3c-0.1,0-0.1,0-0.1,0
			c0,0-0.1,0.1-0.1,0.1s0,0.2-0.1,0.3c-0.1,0.1-0.1,0.2-0.1,0.2c0,0,0.2,0,0.3,0.1c0.2,0,0.3,0,0.3,0c0,0,0.2,0,0.3,0
			c0.4,0,0.4-0.1,0.1-0.3C896.4-449.1,896.2-449.3,896.1-449.3L896.1-449.3z M902.2-449.2c-0.3,0-1.2,0.1-1.3,0.2
			c-0.1,0.1,0,0.2,0.4,0.3c0.1,0,0.3,0.1,0.5,0.1c0.2,0,0.3,0.1,0.3,0.1c0,0,0.1-0.1,0.1-0.2c0-0.1,0-0.2,0-0.3
			C902.3-449.2,902.3-449.2,902.2-449.2C902.3-449.2,902.2-449.2,902.2-449.2L902.2-449.2z M903.5-449c-0.2,0-0.3,0.1-0.5,0.2
			l-0.1,0.1l0,1.2c0,0.7,0,1.3,0,1.4c0,0.1,0,1.9,0,3.9c0,2,0,3.7,0,3.7c0,0.1,0.3,0.1,0.5,0c0.1,0,0.3-0.1,0.4-0.2
			c0.5-0.2,0.4,0,0.4-2.3c-0.1-5.8-0.1-6.6-0.1-6.9c0-0.4-0.3-1-0.6-1.1C903.6-449,903.5-449,903.5-449L903.5-449z M894.2-448.8
			c-0.1,0-0.5,0.2-0.5,0.3c0,0,0,0.1-0.1,0.1c-0.1,0-0.1,2.9,0,5.1c0,0.9,0.1,6.5,0,8c0,1.1,0,1.3,0.3,2c0.1,0.2,0.2,0.5,0.2,0.5
			s0.1,0.2,0.1,0.2s0.1,0.1,0.1,0.3c0.1,0.1,0.1,0.2,0.1,0.3c0,0,0,0.1,0.1,0.1c0.1,0.1,0.1,0.1,0.2,0c0.1-0.1,0.1-0.1,0.1-0.8
			c0-1.2,0-3-0.1-5.6c0-1.4,0-3-0.1-3.6s0-1.2,0-1.3c0-0.1,0-0.2,0-0.3c0-0.1,0-1,0-2c0-2.1-0.1-2.3-0.4-3
			C894.4-448.8,894.3-448.8,894.2-448.8L894.2-448.8z M927.4-447.5c-0.2,0-3.1,0.8-3.8,1.1c-0.1,0-1.7,0.5-2.3,0.7
			c-0.3,0.1-0.3,0.1-0.3,0.2c0,0.1,0,0.2,0,0.2c0,0,0,0.1,0.1,0.1c0.1,0,0.6-0.1,0.7-0.2c0.3-0.1,0.7-0.2,1.2-0.3
			c0.3-0.1,0.8-0.2,1.2-0.3c0.4-0.1,0.7-0.2,0.8-0.2c0.1,0,0.4-0.1,0.8-0.2c0.3-0.1,0.8-0.2,1.1-0.3c0.3-0.1,0.5-0.1,0.6-0.2
			C927.5-447,927.5-447.5,927.4-447.5C927.4-447.5,927.4-447.5,927.4-447.5z M902.3-447C902.3-447,902.3-447,902.3-447
			c-0.1,0-0.2,0.1-0.2,0.2c0,0.1,0,0.3-0.1,0.3c0,0.2-0.2,0.6-0.4,0.7c-0.2,0.2-0.6,0.4-1,0.5c-0.3,0.1-0.9,0-1.2-0.1
			c-0.3-0.1-0.8-0.1-1.1,0c-0.7,0.3-1.3,0.4-1.6,0.2c-0.1-0.1-0.2-0.1-0.3-0.2c-0.3-0.1-0.7-0.9-0.7-1.3c0-0.1-0.1-0.2-0.3-0.2
			c-0.1,0-0.1,0-0.1,0.5c0,2.2,0,4.8,0.1,7c0,0.5,0,2.7,0,4.7c0,2.2,0,3.8,0.1,3.9c0,0.1,0.1,0.2,0.2,0.2c0.2,0.2,0.3,0.2,0.7-0.8
			l0.4-0.9l0-4.5c0-3.8,0-6.3,0-6.6c0-0.1,0.2-0.1,0.3,0.1c0.1,0.2,0.6,0.4,0.8,0.4c0.1,0,0.4,0,0.5,0c0.2,0,0.6-0.1,1-0.1
			c0.8,0,1-0.1,1.3-0.3c0.1-0.1,0.2-0.1,0.2-0.1c0.1,0,0.1,0.1,0.1,0.6c0,0.3,0,0.8,0,1c0,0.2,0,1.1,0,2s0,1.7,0,1.7
			c0,0.1,0.1,0.1,0.2,0c0.4-0.1,0.9-0.4,1-0.6c0-0.1,0.1-0.6,0-2.6c0-1.4,0-2.6,0-2.6c0-0.1,0-0.1,0-1.1c0-0.5,0-1.1,0-1.5
			C902.4-446.9,902.4-447,902.3-447L902.3-447z M931.1-446.8c-0.2,0-0.8,0.1-1.3,0.2c-0.2,0-0.4,0.1-0.5,0.1
			c-0.5,0.1-0.8,0.2-0.9,0.2c-0.1,0-0.2,0.1-0.3,0.1c-0.4,0.1-2.3,0.5-3.6,0.8c-0.4,0.1-1,0.2-1.7,0.4c-0.2,0-0.5,0.1-0.6,0.1
			c-0.1,0-0.3,0.1-0.5,0.1c-0.3,0-0.4,0.1-0.3,0.3l0.1,0.1l0.5-0.1c0.7-0.2,0.8-0.2,2.8-0.5c0.5-0.1,1.1-0.2,1.3-0.2
			c0.5-0.1,2-0.4,2.8-0.5c0.3-0.1,0.8-0.1,1.1-0.2c0.3-0.1,0.7-0.1,0.9-0.2c0.5-0.1,0.5-0.1,0.4-0.4
			C931.2-446.7,931.1-446.8,931.1-446.8C931.1-446.8,931.1-446.8,931.1-446.8z M906.6-446.7C906.6-446.7,906.6-446.7,906.6-446.7
			C906.5-446.7,906.5-446.6,906.6-446.7c-0.1,0.1-0.1,0.4-0.1,1c0,0.5,0,1.4,0.1,1.9c0,1,0,1.1,0.1,1.1c0.2,0.1,0.5,0.8,0.6,1.2
			c0.1,0.8,0.1,1-0.1,1.6c-0.1,0.3-0.4,0.8-0.6,1c-0.4,0.4-0.9,0.7-1.5,0.9c-0.3,0.1-1,0.3-1.8,0.5c-1,0.3-2.1,0.6-2.5,0.9
			c-0.4,0.2-0.8,0.5-0.9,0.6c0,0-0.1,0.1-0.2,0.2c-0.4,0.3-1,1.1-1.2,1.7c-0.1,0.3-0.3,0.9-0.3,1.1c0,0.3,0.1,0.9,0.3,1.2
			c0.3,0.6,0.9,1.1,1.6,1.2c0.1,0,0.3,0,0.3,0c0.1,0,0.8-0.2,0.9-0.3c0,0,0.2-0.1,0.3-0.2c0.7-0.3,1.6-1.6,1.8-2.5
			c0.2-0.7,0.2-1.2,0.1-1.8c-0.1-0.3-0.2-0.6-0.3-0.6c-0.1,0-0.2,0.3-0.3,0.6c-0.1,0.5-0.2,1-0.3,1.3c-0.1,0.3-0.5,1-0.5,1
			c0,0-0.1,0.1-0.1,0.2c-0.2,0.3-0.6,0.6-0.9,0.7c-0.3,0.1-0.7,0.1-1.1-0.1c-0.3-0.1-0.7-0.6-0.7-0.8c-0.1-0.2-0.1-1,0-1.1
			c0,0,0.1-0.2,0.1-0.3c0.1-0.2,0.9-1.1,1-1.1c0,0,0.1-0.1,0.2-0.1c0.1-0.1,0.3-0.2,0.4-0.3c0.2-0.1,0.3-0.2,0.3-0.2
			c0.1-0.1,0.8-0.3,1.1-0.4c0.2,0,0.4-0.1,0.5-0.1c0.1,0,0.3-0.1,0.4-0.1c0.1,0,0.3-0.1,0.4-0.1c0.1,0,0.3-0.1,0.6-0.1
			c1.1-0.2,2.2-0.6,2.8-1.1c0.6-0.5,1-1.2,1.1-1.8c0-0.1,0-0.3,0-0.4c0.1-1,0-1.8-0.3-2.3c-0.2-0.3-0.3-0.4-0.6-0.5
			c-0.2-0.1-0.3-0.1-0.1-0.2c0.2-0.1,0.4-0.3,0.5-0.5c0.1-0.2,0.1-0.3,0.1-1.1c0-1.2,0-1.2-0.7-1.7
			C906.8-446.5,906.7-446.7,906.6-446.7L906.6-446.7z M908.7-445c-0.1,0-0.1,0.2-0.1,0.8c0,0.4,0,0.7,0,0.8c0,0.1,0.2,0.1,0.7,0.2
			c0.4,0.1,0.6,0.1,0.6,0c0,0,0-0.3,0.1-0.7c0-0.7,0.1-0.6-0.6-0.9c-0.2-0.1-0.4-0.2-0.5-0.2C908.8-444.9,908.8-445,908.7-445z
			 M927.9-444.6c-0.1,0-0.4,0-0.6,0.1c-1.1,0.1-3.1,0.3-3.1,0.3c0,0,0,0,0,0.1c0,0,0.1,0.1,0.2,0.1c0.1,0,0.3,0.1,0.4,0.1
			c0.1,0,0.7,0,1.3,0c1.4,0,1.8-0.1,1.9-0.1C928-444.1,928-444.5,927.9-444.6C927.9-444.6,927.9-444.6,927.9-444.6z M899-444.1
			c0.3,0,0.6,0.1,0.9,0.3c0.1,0.1,0.2,0.1,0.4,0c0.2,0,0.3,0,0.3,0c0,0,0,0.1-0.2,0.2c-0.3,0.1-0.4,0.1-0.8,0.1c-0.8,0-1,0-1.3,0.1
			c-0.5,0.1-0.7,0.1-0.8-0.1c0-0.2,0-0.2,0.2-0.2c0.1,0,0.3-0.1,0.4-0.1C898.5-444,898.7-444.1,899-444.1
			C899-444.1,899-444.1,899-444.1z M930.5-443.2c-0.2,0-0.5,0-0.9,0c-0.9,0-1.7,0-1.7,0c0,0.1,0.1,0.2,0.2,0.2
			c0.1,0,0.2,0.1,0.3,0.1s0.8,0.1,1.5,0.1c0.7,0,1.4,0.1,1.4,0.1c0.2,0,0.3-0.1,0.3-0.3c0-0.1-0.1-0.1-0.2-0.2
			C931.4-443.2,931.2-443.2,930.5-443.2L930.5-443.2z M900.4-442.3C900.4-442.3,900.4-442.3,900.4-442.3c-0.1,0.1-0.4,0.1-0.6,0.1
			c-0.4,0-0.5,0.1-0.6,0.1c-0.1,0.1-0.1,0.1-0.1,0.2c0,0,0.1,2.5,0.1,4.6c0,0.8,0,1,0.1,1c0,0,0.1,0,0.1-0.1c0,0,0.3-0.3,0.6-0.5
			s0.5-0.4,0.5-0.4c0,0,0-1.1,0-2.4C900.6-441.9,900.6-442.3,900.4-442.3L900.4-442.3z M897.5-442C897.5-442,897.5-442,897.5-442
			c-0.1,0-0.1,1.3-0.1,4.2c0,2.3,0,4.2,0,4.2c0,0.1,0.1,0,0.2-0.1c0.3-0.7,0.5-1.1,1-1.6l0.3-0.3l0-0.5c0-0.6-0.1-1.4-0.1-3.9
			c0-1.9,0-1.9-0.1-1.9C898.2-442,897.6-442,897.5-442L897.5-442z M922.3-441.2c-0.1,0-0.2,0-0.2,0.1c0,0.1-0.1,2.8-0.1,3.6
			c0,0.6,0.1,1.2,0.3,1.7c0.1,0.3,0.5,1,0.6,1.1c0,0,0,0,0,0.1c0,0.1,0.5,0.5,0.9,0.8c0.6,0.4,1.3,0.7,1.8,0.8c0.1,0,0.3,0,0.4,0.1
			l0,0c0.3,0.1,0.9,0.1,1.2,0c0.1,0,0.3-0.1,0.4-0.1c0.3-0.1,0.6-0.4,1.1-1c0.2-0.2,0.3-0.7,0.4-1.1c0.1-0.4,0.1-0.5,0-1
			c0-0.3-0.1-0.6-0.1-0.8c-0.1-0.4-0.2-0.8-0.3-1c0-0.3-0.1-0.3-0.7-0.3c-0.5,0-0.6,0.1-0.4,0.4c0.1,0.1,0.2,0.3,0.2,0.4
			c0.5,0.7,0.5,2.3,0,3c-0.3,0.4-0.6,0.5-1.2,0.5c-1.3,0.1-2.6-0.4-3.2-1.2c-0.3-0.3-0.7-1.1-0.7-1.3c0-0.1,0-0.1,0-0.2
			c-0.1-0.1-0.1-1.7-0.1-2.1c0-0.2,0.1-0.7,0.1-1.1c0-0.6,0-0.8-0.1-1c0-0.1-0.1-0.3-0.1-0.3C922.5-441.2,922.4-441.2,922.3-441.2
			L922.3-441.2z M881.8-437.5c0,0-0.1,0-0.1,0.1c-0.1,0-0.1,0.1-0.1,0.1c0,0-0.1,0.1-0.2,0.1c-0.1,0-0.3,0.1-0.3,0.2
			s-0.2,0.2-0.3,0.3c-0.2,0.2-0.3,1-0.1,1.4c0.1,0.2,0.1,0.3,0.1,1c0,0.4,0,0.9,0,1c0.1,0.3,0.3,0.5,0.7,0.6l0.3,0.1l-0.1,0.2
			c-0.3,0.4-0.5,1-0.4,1.5c0.1,0.7,0.7,1.4,1.5,1.7c0.1,0,0.4,0.1,0.7,0.1c0.4,0,0.5,0,0.8-0.2c0.8-0.4,1.2-1.1,1.2-1.9
			c0-0.2,0-0.4,0-0.5c0-0.1,0.1-0.1,0.3-0.2c0.2-0.1,0.4-0.1,0.5-0.2c0.1-0.1,0.2-0.1,0.4-0.1c0.6,0,1.6,0,1.7,0
			c0.7,0.1,1.3,0.3,1.5,0.4c0.4,0.2,0.6,0.3,1.2,0.4c0.2,0,0.5,0.1,0.5,0.1c0,0,0.2,0.1,0.4,0.1s0.5,0.1,0.7,0.1
			c0.2,0,0.4,0.1,0.5,0.1c0.3,0,0.7,0.1,0.9,0.2c0.2,0.1,0.3,0,0.3-0.1c0-0.1-0.2-0.4-0.3-0.4c-0.1,0-0.4-0.2-1-0.7l-0.4-0.3l-0.5,0
			c-0.9,0-2.6-0.3-3.2-0.6c-0.5-0.2-0.8-0.3-1.5-0.4c-0.5,0-0.8-0.2-0.9-0.4c-0.1-0.2-0.1-0.5,0-0.6c0.1-0.1,0.2-0.1,0.8,0.1
			c0.3,0.1,0.7,0.2,0.9,0.2c0.2,0,0.5,0.1,0.7,0.1s0.6,0.1,0.8,0.1c0.3,0,0.5,0.1,0.6,0.1c0.1,0,0.3,0,0.5,0.1s0.7,0.1,1,0.2
			c0.8,0.2,0.8,0.2,0.7-0.3c0-0.2-0.1-0.3-0.1-0.4c0,0-0.7-0.1-1.5-0.2c-0.5,0-0.9-0.1-0.9-0.1c-0.1,0-0.3,0-0.4-0.1
			c-0.7-0.1-0.8-0.1-0.8-0.1c-0.1-0.1-0.8-0.2-1.3-0.3c-0.5-0.1-0.9-0.2-0.9-0.4c0-0.2,0.2-0.2,0.6-0.2c0.2,0,0.4,0.1,0.4,0.1
			c0,0,0.3,0.1,0.5,0.1c0.3,0.1,0.6,0.2,0.7,0.2c0.2,0.1,0.5,0.1,1.5,0.1c1,0,1.3,0,1.4,0.1c0.1,0,0.2,0.1,0.2,0.1c0,0,0-0.4,0-0.4
			c0,0-0.1-0.1-0.1-0.2c0-0.3-0.1-0.3-0.8-0.3c-0.4,0-0.9-0.1-1-0.1c-0.2,0-0.7-0.1-1.2-0.2c-0.5-0.1-1-0.2-1.2-0.2
			c-0.2,0-0.5-0.1-0.7-0.1s-0.5-0.1-0.7-0.1c-0.3,0-0.4,0-0.7-0.3c-0.2-0.2-0.4-0.3-0.9-0.5c-0.1-0.1-0.2-0.1-0.2-0.2H881.8
			L881.8-437.5z M882.1-437c0.1,0,0.4,0.2,0.4,0.3c0.1,0.2,0.1,0.2,0,0.4c0,0.1-0.1,0.2-0.1,0.2c-0.2,0.1-0.4-0.1-0.5-0.5
			C882-436.9,882-436.9,882.1-437C882.1-437,882.1-437,882.1-437z M905.3-435.9C905.3-436,905.3-436,905.3-435.9
			C905.3-435.9,905.2-435.9,905.3-435.9c-0.1,0.1-0.2,0.2-0.2,0.6c0,0.5-0.1,0.7-0.2,1.1c0,0.1-0.1,0.3-0.1,0.4
			c-0.2,0.7-0.8,1.8-1.2,2.3c-0.5,0.7-1.7,1.7-2,1.7c-0.1,0-0.2,0.1-0.2,0.3c0,0.1,0.1,0.2,0.1,0.2s0.2,0.2,0.3,0.3
			c0.1,0.2,0.1,0.3,0.1,0.6c0,0.8-0.4,1.2-1.1,0.8c-0.3-0.1-0.5-0.4-0.5-0.6c0-0.2-0.2-0.8-0.3-1c-0.2-0.4-0.6-0.7-1.2-0.7
			c-0.3,0-0.4,0-0.7,0.1c-0.3,0.1-0.8,0.5-0.8,0.6c0,0-0.1,0.1-0.1,0.2c-0.1,0.1-0.2,0.3-0.3,0.6c-0.1,0.2-0.2,0.5-0.3,0.5
			c-0.2,0.3-0.3,0.5-0.3,0.7c0,0.1-0.1,0.3-0.1,0.3c0,0-0.1,0.3-0.2,0.6c-0.4,1.2-0.5,1.5-0.6,1.8c-0.2,0.5-0.3,0.7-0.3,0.8
			c0,0.1-0.1,0.2-0.2,0.5c0,0.1-0.1,0.2-0.1,0.2c0,0,0,0.1-0.1,0.3s-0.1,0.3-0.2,0.4c-0.2,0.5-0.8,1.7-0.8,1.8
			c-0.1,0.1-0.1,0.3-0.1,0.4c0,0.1,0.2,0.1,0.3,0c0.1-0.1,0.6-0.8,0.8-1.1c0.3-0.5,0.3-0.6,0.5-0.9c0.1-0.2,0.2-0.4,0.2-0.5
			c0.1-0.1,0.1-0.3,0.2-0.4c0-0.1,0.1-0.2,0.1-0.2s0-0.1,0.1-0.2s0.1-0.3,0.2-0.4c0.1-0.2,0.1-0.3,0.1-0.4c0-0.1,0-0.1,0-0.2
			c0,0,0.2-0.4,0.3-0.8s0.3-0.8,0.3-0.8s0.1-0.2,0.2-0.4c0.1-0.3,0.2-0.4,0.4-1c0-0.1,0.2-0.3,0.3-0.5c0.3-0.3,0.5-0.4,1-0.5
			c0.2,0,0.2,0,0.4,0.1c0.2,0.2,0.3,0.4,0.3,0.7c0,0.2-0.1,0.7-0.1,0.9c-0.1,0.3-0.2,0.5-0.2,0.6c0,0.1,0,0.1,0,0.2
			c0,0-0.1,0.1-0.1,0.3s-0.1,0.3-0.2,0.5c-0.1,0.2-0.1,0.3-0.1,0.3c0,0-0.1,0.3-0.2,0.6c-0.1,0.3-0.3,0.6-0.3,0.8s-0.2,0.3-0.2,0.4
			c-0.1,0.1-0.1,0.1-0.2,0.1c-0.1-0.1-0.1-0.5,0-0.5c0,0,0-0.1,0-0.1c0-0.1,0.1-0.4,0.2-0.6c0.1-0.1,0.1-0.7,0.1-1
			c0-0.1,0-0.2-0.1-0.2c-0.2-0.1-0.4,0.1-0.8,1c-0.2,0.4-0.5,1.1-0.8,1.6c0,0.1-0.1,0.2-0.1,0.2s-0.1,0.1-0.1,0.1
			c0,0.1-0.2,0.5-0.3,0.7c-0.1,0.1-0.2,0.3-0.3,0.4c-0.6,1.2-1.2,2-1.9,2.5c-0.2,0.1-0.3,0.2-0.3,0.2c0,0-0.1,0-0.2,0.1
			c-0.2,0.1-0.3,0.1-0.5,0c-0.1-0.1-0.2-0.1-0.5,0c-1,0.1-1,0.1-1.1,0.2c-0.2,0.3-0.1,0.3,0.6,0.3c0.3,0,0.9,0,1.2,0
			c0.8,0,1,0,1.3-0.2c0.3-0.2,0.6-0.6,0.6-0.7c0,0,0.1-0.2,0.1-0.3c0.1-0.1,0.2-0.3,0.2-0.4c0-0.1,0.1-0.2,0.1-0.2c0,0,0-0.1,0-0.1
			c0,0,0-0.2,0.1-0.3c0.1-0.1,0.1-0.3,0.1-0.3c0.3-0.7,0.5-1.1,0.6-1.2c0.1,0,0.2-0.2,0.4-0.4c0.3-0.4,0.4-0.5,0.5-0.3
			c0,0.1,0,0.2,0,0.3c0,0.2-0.2,0.5-0.3,0.6c0,0-0.7,1-0.7,1c0,0,0,0.1-0.1,0.2c0,0.1-0.1,0.2-0.2,0.4c0,0.1-0.1,0.3-0.1,0.3
			c0,0.1-0.1,0.2-0.1,0.3c-0.1,0.2-0.1,0.4-0.2,0.5c0,0,0,0.1,0,0.2c0,0.1,0,0.1,0,0.2c0,0-0.1,0.2-0.2,0.3c-0.2,0.4-0.5,0.7-1,1
			c-0.2,0.1-0.7,0.3-1.4,0.4c-0.1,0-0.3,0.1-0.4,0.1c-0.1,0-0.1,0-0.1-0.1c0-0.2-0.1-0.4-0.5-0.5c-0.2-0.1-0.4-0.2-0.5-0.2
			c-0.2,0-0.2,0-0.2-0.1c0-0.1-0.1-0.2-0.2-0.3c-0.3-0.2-0.4-0.1-0.5,0.2c-0.1,0.2-0.1,0.4-0.2,0.4c-0.1,0.2-0.1,0.3,0,0.3
			c0.4,0,0.9,0.2,1,0.5c0,0.1,0.1,0.1,0.1,0.1c0.1,0,0,0.2,0,0.4c0,0.1-0.1,0.2-0.2,0.3c-0.1,0.1-0.2,0.2-0.2,0.3l-0.1,0.2h3.9l0,0
			l0,0l0.2-0.1c0.1-0.1,0.2-0.1,0.2-0.1l0.6-0.4c0.1-0.2,0.3-0.4,0.5-0.6c0.1-0.2,0.3-0.4,0.3-0.4c0.2-0.2,0.5-0.7,0.5-0.9
			c0-0.1,0.1-0.3,0.1-0.7c0,0,0-0.1,0-0.2c0-0.1,0.1-0.2,0.1-0.2c0.4-0.2,0.8-0.6,0.9-0.9c0-0.1,0-0.4,0-0.6c0-0.5,0-0.5,0.5-1
			c0.3-0.3,0.3-0.4,0.5-0.8c0.1-0.2,0.2-0.5,0.2-0.6s0.1-0.2,0.1-0.3c0-0.1,0.3-0.6,0.3-0.6c0.1,0,0.1,0,0,0.1
			c-0.1,0.3-0.1,0.3,0,0.4c0,0.1,0.1,0.1,0.1,0.1c0.1,0,0.3-0.4,0.5-0.7c0.1-0.1,0.2-0.4,0.3-0.5c0.1-0.2,0.1-0.3,0.1-0.3
			c0,0,0.2-0.4,0.3-0.8c0.1-0.2,0.3-0.6,0.3-0.8c0-0.1,0.1-0.2,0.4-0.3c0.2-0.1,0.4-0.2,0.4-0.3c0-0.1,0.1-0.1,0.1-0.1
			c0.1,0,0.1-0.1,0.1-0.1s0-0.1,0-0.1c0,0,0.1-0.1,0.2-0.3c0.2-0.4,0.3-1,0.2-1.4l0-0.3l0.6-0.7c1.1-1.1,1.4-1.6,1.7-2.3
			c0-0.1,0.1-0.2,0.1-0.2c0,0,0.1-0.1,0.1-0.2c0-0.1,0.1-0.2,0.1-0.2s0,0,0-0.1c0-0.1,0-0.1,0-0.1c0,0,0.1-0.2,0.2-0.4
			c0.3-1.1,0.4-1.4,0.2-2.1C905.4-435.8,905.4-435.9,905.3-435.9L905.3-435.9z M885.2-435.3C885.2-435.3,885.2-435.3,885.2-435.3
			c0.2,0,0.2,0.1,0.2,0.5c0,0.3,0,0.4,0.1,0.6c0.2,0.3,0.1,0.9-0.2,1.1c-0.3,0.2-0.3,0.4,0,0.3c0.3-0.1,0.8,0.1,0.7,0.2
			c0,0-0.2,0.1-0.4,0.2c-0.4,0.1-0.5,0.1-0.8,0.1c-0.3-0.1-0.3-0.3,0-0.4l0.1,0l-0.1-0.2c-0.1-0.2-0.1-0.2,0-0.5
			c0.1-0.2,0.1-0.4,0.1-0.9C884.8-435.1,884.9-435.2,885.2-435.3C885.1-435.3,885.1-435.3,885.2-435.3L885.2-435.3z M882.8-434.1
			c0,0,0.1,0,0.1,0c0.2,0.1,0.2,0.4,0,0.7l-0.2,0.2l-0.4,0l-0.4,0l0-0.3c0-0.3,0.2-0.5,0.5-0.7C882.7-434.1,882.7-434.1,882.8-434.1
			z M922.8-432.9c-0.5,0-1.3,0.1-1.8,0.3c-0.2,0.1-0.5,0.2-0.8,0.3s-0.6,0.2-0.6,0.2c-0.1,0-0.2,0.1-0.3,0.1c-0.1,0-0.5,0.1-0.8,0.2
			c-1,0.3-2.9,0.7-3.5,0.8c-0.1,0-0.4,0-0.5,0.1c-0.2,0-0.6,0.1-1,0.1c-0.4,0-0.9,0.1-1.2,0.1c-1,0.1-1.7,0.1-3,0.1
			c-1,0-1.3,0-1.9-0.1c-0.4-0.1-0.9-0.2-1.1-0.2s-0.5-0.1-0.5-0.1c-0.5-0.1-1,0.1-1.4,0.5c-0.2,0.2-0.3,0.4-0.2,0.5
			c0.1,0.1,1.2,0.4,2.1,0.5c0.3,0,0.6,0.1,0.7,0.1c0.5,0.1,0.9,0.1,2,0.1c1.6,0,3.4-0.2,4.8-0.4c0.1,0,0.4-0.1,0.6-0.1
			c0.2,0,0.6-0.1,0.8-0.2c0.3-0.1,0.6-0.2,0.8-0.2c0.6-0.2,1-0.3,1.4-0.4c0.2-0.1,0.6-0.2,0.8-0.3s0.6-0.2,0.7-0.2
			c0.1-0.1,0.3-0.1,0.3-0.1c0.1,0,0.1,0,0.2-0.1c0.1-0.1,1.2-0.5,1.5-0.6c0.1,0,0.4-0.1,0.6-0.2c0.4-0.1,1.3-0.2,1.5-0.2
			c0.2,0,0.4,0.1,0.5,0.2c0.2,0.2,0.3,0.5,0.3,0.9c0.1,0.6,0.1,0.7,0.5,1c0.2,0.2,0.3,0.3,0.4,0.7c0,0.1,0.2,0.3,0.2,0.4
			c0.4,0.4,0.4,0.5,0.5,0.8c0,0.2,0,0.3,0,0.4c0,0.1-0.1,0.2-0.1,0.2c0,0.1-0.1,0.2-1.1,1.2c-0.6,0.6-0.8,0.9-0.9,1.3
			c-0.1,0.3-0.1,0.4-0.2,0.7c0,0.1-0.2,0.2-0.2,0.1c-0.1-0.1-0.1-0.3,0-0.8c0.1-0.7,0.1-0.8,0.7-1.1c0.3-0.1,0.5-0.3,0.5-0.3
			c0.2-0.2,0.5-0.5,0.5-0.6c0,0,0-0.1,0.1-0.2c0.1-0.2,0.1-1,0-1.2c0-0.1-0.1-0.2-0.1-0.2c0-0.1-0.2-0.1-0.3,0
			c-0.1,0-0.1,0.1-0.1,0.4c0,0.6-0.2,1.2-0.7,1.7l-0.2,0.2l-0.4,0c-0.3,0-0.5-0.1-0.8-0.2c-0.4-0.2-0.6-0.4-0.8-0.8
			c-0.3-0.6-0.3-0.9-0.2-1.2c0-0.1,0.1-0.2,0.1-0.2c0-0.1,0.1-0.2,0.1-0.3c0-0.1,0.1-0.2,0.1-0.2c0,0,0,0,0-0.1
			c0-0.1,0.1-0.2,0.3-0.4l0.3-0.3l-0.2,0c-0.4,0.1-0.8,0.3-1,0.8c-0.3,0.5-0.4,1.1-0.2,1.9c0.1,0.7,0.3,1.1,0.9,1.6
			c0.4,0.4,0.6,0.7,0.6,1c0,0.2-0.2,0.5-0.5,0.6c-0.6,0.4-1.1,0.8-1.3,1.3c-0.1,0.2-0.1,0.7,0,1c0.1,0.3,0.1,1,0,1.2
			c0,0.1-0.1,0.3-0.2,0.4c0,0.1-0.1,0.2-0.1,0.2s-0.1,0.2-0.1,0.3c-0.1,0.1-0.1,0.2-0.1,0.3c0,0.1-0.2,0.3-0.6,0.7
			c-0.7,0.7-1,0.8-1.8,0.6c-0.2-0.1-0.5-0.1-0.5-0.1c-0.4,0-0.7,0.3-0.7,0.8c0,0.3,0.1,0.5,0.6,1c0.2,0.1,0.3,0.4,0.3,0.6
			c0,0.5-0.5,0.9-0.9,0.7c-0.2-0.1-0.2-0.3,0-0.3c0.1,0,0.4-0.3,0.4-0.5c0.1-0.4-0.1-0.6-0.5-0.6c-0.2,0-0.5,0.3-0.7,0.6
			c-0.1,0.1-0.1,0.3-0.2,0.3s-0.1,0.1-0.1,0.3c-0.1,0.5-0.2,0.4-0.2-0.2c0-0.4,0-0.5,0.1-0.7c0.1-0.2,0.1-0.2,0-0.3
			c-0.1-0.2-0.3-0.3-0.5-0.3c-0.1,0-0.2,0-0.2,0.1c-0.2,0.2-0.3,0.7-0.2,1c0,0,0.1,0.2,0.1,0.4l0.3,0.5h4.9l0.5-0.4
			c0.1-0.1,0.1-0.1,0.2-0.2c0.7-0.7,1.1-1.2,1.1-1.3c0-0.1,0.4-0.7,0.6-1c0.1-0.1,0.3-0.4,0.4-0.6c0.1-0.2,0.2-0.4,0.2-0.5
			s0.1-0.2,0.1-0.3c0-0.1,0.3-0.4,0.5-0.6c0.2-0.2,0.4-0.5,0.4-0.5c0,0,0-0.1,0-0.1c0,0,0.1-0.1,0.1-0.3c0.1-0.3,0.1-0.7,0.1-0.8
			c-0.1-0.2-0.2-0.6-0.2-0.8c0-0.2,0.1-0.6,0.2-1c0-0.1,0.1-0.3,0.1-0.4c0-0.2,0.1-0.5,0.4-0.9c0.1-0.2,0.2-0.4,0.2-0.4
			c0-0.1,0.5-0.4,0.7-0.5c0.2-0.1,0.5-0.4,0.7-0.7c0.1-0.1,0.3-0.3,0.3-0.4l0.1-0.2l0.2,0.3c0.3,0.5,0.4,0.7,0.8,1
			c0.5,0.5,0.5,0.5,1.4,1.2c1,0.8,0.9,0.7,2.3,1.5c0.9,0.6,1.3,0.9,1.6,1.4c0.1,0.1,0.2,0.3,0.2,0.4c0.2,0.3,0.2,0.8,0.1,1.2
			c-0.1,0.4-0.2,0.4-0.7,0.3c-0.9-0.1-1.2,0-1.6,0.4c-0.2,0.2-0.3,0.4-0.5,0.7c-0.3,0.6-0.3,0.7-0.2,0.9c0.1,0.1,0.1,0.2,0.3,0.2
			c0.4,0,0.6-0.2,0.6-0.6c0-0.2,0.1-0.5,0.3-0.6c0,0,0.2-0.1,0.3-0.2c0.2-0.1,0.2-0.1,0.7-0.1c0.8,0.1,1.1,0,1.3-0.6
			c0.1-0.2,0.2-0.5,0.2-0.7c0.1-0.4,0.1-1.1,0-1.2c0,0-0.1-0.1-0.1-0.3c0-0.1-0.1-0.3-0.2-0.3c-0.1,0-0.1-0.1-0.1-0.1
			c0,0-0.1-0.2-0.3-0.3c-0.5-0.5-0.7-0.8-0.8-1c0-0.1-0.1-0.5-0.1-0.8c0-0.4-0.1-0.7-0.1-0.8c0-0.1-0.3-0.4-0.5-0.6
			s-0.5-0.6-0.6-0.7c-0.1-0.1-0.2-0.3-0.2-0.4c0-0.1-0.2-0.3-0.3-0.5c-0.1-0.2-0.2-0.4-0.3-0.5s-0.1-0.2-0.2-0.4
			c-0.2-0.4-0.4-0.7-0.6-0.8c-0.1-0.1-0.2-0.1-0.5-0.1c-0.6,0-1.1-0.3-1.4-0.6c-0.1-0.1-0.3-0.3-0.3-0.4c-0.2-0.2-0.4-0.2-0.5-0.1
			c-0.1,0.1-0.1,0.3,0,0.4c0.1,0.2,0.1,0.5-0.1,0.8c-0.2,0.3-0.4,0.6-0.6,0.6c-0.2,0-0.4-0.3-0.5-0.6c-0.2-0.4-0.1-0.6,0.1-0.8
			c0.1-0.1,0.2-0.1,0.2-0.2c0,0,0-0.1,0.1-0.1c0.1-0.2,0.1-0.6-0.1-0.9c-0.2-0.3-0.3-0.5-0.6-0.7c-0.1-0.1-0.3-0.2-0.3-0.3
			c-0.1-0.1-0.6-0.3-1.6-0.5C923-432.8,922.9-432.9,922.8-432.9L922.8-432.9z M882.7-432.4c0.3,0,0.4,0.3,0.1,0.4
			c-0.3,0.1-0.6,0.5-0.6,0.9c0,0.1,0,0.2,0.1,0.3c0.1,0.1,0.1,0.2,0,0.3c-0.1,0.1-0.2,0.1-0.3,0c-0.1-0.1-0.1-0.2-0.1-0.5
			c0-0.4,0.1-0.7,0.5-1C882.5-432.3,882.6-432.4,882.7-432.4z M924.6-431.7c0,0,0.1,0,0.2,0.1c0.1,0.1,0.2,0.1,0.2,0.2
			c0.1,0.1,0.1,0.5,0,0.6c-0.1,0.1-0.5,0.1-0.6-0.1c-0.1-0.1-0.1-0.2,0-0.5C924.4-431.6,924.5-431.7,924.6-431.7
			C924.6-431.7,924.6-431.7,924.6-431.7L924.6-431.7z M897.3-431.6c-0.1,0-0.1,0.1-0.2,0.4c0,0.1-0.1,0.3-0.2,0.4
			c0,0.1-0.1,0.3-0.2,0.5c-0.1,0.2-0.2,0.3-0.2,0.3s0,0.1,0,0.1s0,0.1,0,0.1c0,0-0.1,0.1-0.2,0.3c-0.1,0.1-0.2,0.4-0.3,0.5
			c-0.2,0.5-0.5,1.2-0.5,1.3c0,0,0,0.1,0,0.1c0,0-0.1,0.1-0.1,0.3c0,0.1-0.1,0.3-0.1,0.3c0,0-0.1,0.2-0.1,0.3c0,0.1-0.1,0.3-0.1,0.3
			c0,0.1-0.1,0.2-0.1,0.3c0,0.1-0.1,0.3-0.2,0.5c-0.1,0.2-0.1,0.3-0.1,0.4c0,0.1,0,0.1,0,0.2c0,0,0,0.1,0,0.2s0,0.2,0,0.2
			c0,0,0,0.1,0,0.1s0,0.2-0.1,0.3c-0.1,0.1-0.1,0.2-0.1,0.3s0,0.1,0,0.1c0,0-0.1,0.3-0.2,0.5c-0.1,0.2-0.2,0.4-0.2,0.5s0,0.1,0,0.1
			c0,0,0,0.2-0.1,0.3c-0.1,0.1-0.1,0.2-0.1,0.3c0,0,0,0.1-0.1,0.3c-0.1,0.1-0.1,0.2-0.1,0.3c0,0.2-0.5,1.1-0.9,1.5
			c-0.1,0.1-0.2,0.3-0.2,0.3c0,0.1-0.1,0.1-1,0.1c-1.5,0-1.9,0.2-2.6,0.8c-0.4,0.4-0.7,0.9-0.7,1.2c0,0.2-0.1,0.3-0.3,0.5
			c-0.4,0.4-0.5,0.8-0.4,1.3c0,0,0,0,0,0l0.1,0.2c0,0,0,0,0,0c0,0,0,0.1,0,0.1c0,0,0,0,0,0l0,0h1.2v-0.2c0-0.2,0-0.3-0.1-0.5
			c-0.1-0.1-0.1-0.3-0.1-0.3c0,0,0.1-0.2,0.2-0.3c0.1-0.1,0.2-0.3,0.3-0.3c0.1-0.1,0.1-0.2,0-0.3c-0.1-0.1-0.1-0.2-0.2-0.2
			c0,0,0-0.1,0.1-0.2c0.1-0.1,0.1-0.2,0.1-0.3c0-0.1,0.2-0.4,0.3-0.5c0.1-0.1,0.4-0.3,0.9-0.5c0.3-0.1,0.5-0.1,0.8-0.1
			c0.4,0,1.1-0.1,1.4-0.2c0.1,0,0.2-0.1,0.3,0c0.1,0,0.6-0.5,0.7-0.7c0-0.1,0.1-0.2,0.1-0.2c0,0,0.3-0.7,0.3-0.8c0,0,0-0.1,0-0.1
			c0.2-0.3,0.4-0.8,0.4-0.8c0,0,0-0.1,0.1-0.3c0.1-0.1,0.1-0.2,0.1-0.3c0,0,0-0.1,0.1-0.2c0.1-0.1,0.1-0.2,0.1-0.2c0,0,0-0.1,0-0.2
			c0.1-0.2,0.2-0.6,0.3-0.8c0-0.1,0.1-0.4,0.1-0.5c0-0.1,0.1-0.3,0.1-0.4c0-0.1,0.1-0.5,0.2-0.8c0.1-0.3,0.2-0.6,0.2-0.7
			c0.2-0.8,0.4-1.3,0.6-1.8c0.4-0.8,0.7-1.3,1-1.6c0.5-0.5,0.5-0.5,0.4-0.8C897.6-431,897.4-431.6,897.3-431.6L897.3-431.6z
			 M919.6-429.9c-0.2,0-0.3,0-0.4,0.1c0,0-0.1,0.1-0.2,0.2c-0.1,0-0.1,0.1-0.1,0.1c0,0,0,0.1,0,0.1c-0.1,0-0.4,1-0.5,1.5
			c0,0.2-0.1,0.4-0.1,0.5c0,0.2,0,1.1,0.1,1.7c0,0.2,0.1,0.4,0.1,0.6c0.1,0.4,0.1,0.6,0.2,0.9c0.1,0.2,0.1,0.4,0.1,1
			c0,0.7,0.1,1.3,0.2,1.8c0,0.2,0,0.4-0.2,0.6c-0.1,0.1-0.2,0.3-0.3,0.4c-0.2,0.3-0.5,0.5-1,0.6c-0.2,0.1-0.3,0-0.5-0.1
			c-0.2-0.1-0.4-0.1-0.6-0.2c-0.3,0-0.4,0-0.6,0.1c-0.3,0.1-1,0.8-1.2,1.1c0,0.1-0.1,0.2-0.1,0.2c-0.1,0-0.2,0.4-0.2,0.5
			c0,0.2,0.1,0.5,0.3,0.6c0.2,0.2,0.3,0.1,0.4,0c0-0.1,0-0.2,0-0.4c0-0.1-0.1-0.3,0-0.3c0,0,0.1-0.2,0.1-0.2
			c0.1-0.2,0.6-0.7,0.7-0.7c0.2,0,0.4,0,0.6,0.1c0.1,0,0.3,0.1,0.4,0.1c0.7,0.2,1.2,0,1.9-0.7c0.3-0.3,0.5-0.6,0.5-0.6
			c0-0.1,0.1-0.2,0.1-0.2c0,0,0.1-0.3,0.2-0.5c0.1-0.2,0-0.5-0.1-0.9c-0.1-0.2-0.1-1.2,0-1.4c0-0.1,0-0.4-0.2-1.1
			c-0.1-0.2-0.1-0.5-0.2-0.6c0-0.1-0.1-0.3-0.1-0.3c0,0,0-0.2-0.1-0.4s0-0.3-0.1-0.3c-0.1-0.1-0.1-1.1,0-1.4c0-0.2,0.1-0.4,0.1-0.6
			c0-0.3,0.1-0.3,0.2-0.7c0.2-0.5,0.3-0.6,0.4-0.7c0.1-0.1,0.2-0.2,0.2-0.3C919.9-429.9,919.8-429.9,919.6-429.9L919.6-429.9z
			 M927.6-429.3c0,0,0.1,0,0.1,0c0.3,0,0.9,0.3,1.1,0.6c0.2,0.2,0.5,0.6,0.5,0.7c0,0,0,0.1,0.1,0.2c0.2,0.2,0.6,0.9,0.6,0.9
			c0,0,0,0,0,0s0.1,0.1,0.2,0.2c0.2,0.4,0.4,0.6,0.6,0.9c0.2,0.3,0.3,0.3,0.4,0.6c0.1,0.3,0.1,0.5,0,0.6c-0.1,0.1-0.3,0.1-0.5,0
			c-0.1-0.1-1-0.5-1.2-0.7c0,0-0.1-0.1-0.2-0.1s-0.3-0.2-0.6-0.4c-0.5-0.4-0.5-0.4-0.8-0.7c-0.8-0.7-1.1-1.1-1.2-1.8
			c-0.1-0.4-0.1-0.4,0.1-0.6C927.1-429.2,927.3-429.3,927.6-429.3z M934.7-426c0.1,0,0.2,0,0.4,0.1c0.2,0.1,0.3,0.2,0.4,0.3
			c0.2,0.3,0.2,0.7,0,1.2c-0.1,0.4-0.1,0.6,0,1.6c0.1,1,0.1,1.7-0.2,2.6c-0.2,0.7-0.6,1.7-0.8,1.9c-0.2,0.2-0.7,0.4-0.9,0.4
			c-0.2,0-0.8,0.2-1,0.3c-0.5,0.2-0.5,0.2-0.6-0.1c-0.1-0.7-0.1-0.7,0.4-0.6c0.3,0,0.4,0,0.6-0.1c0.7-0.3,1-0.6,1.3-1.1
			c0.3-0.5,0.3-0.8,0.4-2c0.1-0.5,0.2-1.2,0.3-1.3c0-0.1,0-0.2-0.1-0.3c-0.1-0.3-0.2-0.4-0.4-0.5c-0.4-0.1-0.9-0.5-0.9-0.7
			c0,0,0-0.2-0.1-0.3c-0.3-0.6,0.1-1.4,0.8-1.6C934.4-426,934.6-426,934.7-426z M921.7-423.4c0.2,0,0.5,0.1,0.7,0.4
			c0.3,0.3,0.4,0.5,0.5,1c0,0.2,0,0.3-0.1,0.5c-0.2,0.3-0.3,0.3-0.8,0.5c-0.4,0.1-0.6,0.3-0.6,0.4c0,0.1-0.2,0.6-0.3,0.8
			c0,0.1-0.1,0.2-0.1,0.2s0,0.1-0.1,0.1c-0.1,0.1-0.2,0.3-0.3,0.5c-0.3,0.4-1.1,1.2-1.4,1.4c-0.1,0.1-0.4,0.2-0.5,0.2
			c-0.9,0.3-0.8,0.2-0.8,0.6c0,0.1,0,0.3,0,0.3c0,0.1-0.1,0.2-0.2,0.1c-0.1,0-0.1-0.1-0.1-0.3c0-0.3-0.1-0.4-0.5-0.9
			c-0.2-0.2-0.3-0.4-0.3-0.4c0-0.1,0.3-0.1,0.7-0.1c0.3,0.1,0.4,0,0.6,0c0.2,0,0.4-0.1,0.5-0.2c0.2-0.1,0.8-0.5,0.9-0.7
			c0-0.1,0.2-0.2,0.2-0.3c0.1-0.1,0.2-0.3,0.3-0.4c0.1-0.1,0.2-0.3,0.3-0.3c0.1-0.1,0.2-0.4,0.4-0.9c0.1-0.2,0.1-0.6,0-0.9
			c-0.1-0.3-0.1-0.8,0-1c0.2-0.3,0.5-0.7,0.7-0.7C921.5-423.4,921.6-423.4,921.7-423.4L921.7-423.4z M896.6-421
			c0.1,0,0.2,0.1,0.3,0.2c0.2,0.3,0.1,0.6-0.1,0.9c0,0.1-0.2,0.1-0.3,0.1c-0.2,0-0.2,0-0.4-0.1c-0.2-0.2-0.2-0.4-0.1-0.7
			C896.2-420.9,896.4-421,896.6-421z M895.8-419.2c0.1,0,0.2,0,0.2,0.1c0.1,0.1,0.1,0.1,0,0.5c-0.1,0.2-0.2,0.4-0.2,0.5
			c-0.1,0.1-0.1,0.3-0.2,0.4c-0.3,0.6-0.9,1.2-1.3,1.4c-0.1,0.1-0.2,0.1-0.3,0.2c-0.2,0.1-0.7,0.3-0.9,0.3c-0.1,0-0.3,0-0.3,0
			c-0.1,0-0.3-0.1-0.4-0.2c0,0-0.1-0.1-0.1-0.2s0-0.1-0.1-0.2c-0.1-0.1,0-0.2,0.3-0.2c0.2,0,0.5-0.1,0.7-0.1
			c0.2-0.1,0.4-0.1,0.4-0.1c0.2,0,0.9-0.5,1.2-0.8c0.2-0.2,0.5-0.8,0.5-0.9c0,0,0-0.1,0.1-0.3c0.1-0.1,0.1-0.2,0.1-0.3
			C895.6-419.1,895.7-419.2,895.8-419.2z M921-418.4c0,0-0.2,0.5-0.4,0.8c-0.7,1-0.9,1.2-1.2,1.4c-0.3,0.3-0.3,0.3-0.5,0.2
			c-0.3-0.1-0.3-0.5,0-0.8c0.1-0.1,0.3-0.2,0.4-0.2c0.4-0.2,0.8-0.5,1.3-1C920.8-418.2,921-418.4,921-418.4L921-418.4z M930-417.8
			c-0.1,0-0.3,0-0.3,0.1c0,0-0.1,0.2-0.1,0.3c-0.1,0.2,0,0.3,0,0.6c0.1,0.2,0.2,0.5,0.3,0.6c0.2,0.3,0.4,0.4,0.4,0.1
			c0-0.1,0-0.3,0-0.4c-0.1-0.2,0.1-0.8,0.3-0.9c0.1,0,0.1-0.3,0-0.3c-0.1,0-0.2,0-0.3-0.1C930.2-417.8,930.1-417.8,930-417.8z
			 M935.3-417.8C935.3-417.8,935.4-417.8,935.3-417.8c0,0.1-0.2,0.4-0.2,0.5c0,0-0.1,0.1-0.2,0.2c-0.1,0.1-0.2,0.2-0.3,0.3
			c-0.1,0.1-0.2,0.2-0.3,0.2c-0.1,0.1-0.4,0.2-0.5,0.2c0,0-0.1-0.1-0.2-0.1c-0.2-0.2-0.7-0.1-1.3,0.2c-0.3,0.1-0.4,0.2-0.5,0.5
			l-0.1,0.2h-0.4H931l0-0.1c0-0.1,0.2-0.4,0.3-0.5c0,0,0.1-0.1,0.1-0.2c0.1-0.1,0.1-0.1,0.2,0c0.2,0.1,0.3,0,0.7-0.2
			c0.4-0.2,0.6-0.3,1-0.2l0.3,0.1l0.4-0.2c0.2-0.1,0.6-0.3,0.8-0.5C935.1-417.7,935.3-417.8,935.3-417.8z M889.7-417.1
			c-0.1,0-0.3,0.3-0.3,0.5c0,0.1,0,0.1,0,0.1c-0.1,0.1-0.2,0.5-0.1,0.6c0,0.2,0.1,0.2,0.3,0.2c0.4,0,0.5,0,0.6-0.1
			c0.1,0,0.1-0.1,0.1-0.2c0-0.1,0.2-0.5,0.3-0.5c0.1,0,0-0.1-0.1-0.3C890.2-416.9,889.8-417.1,889.7-417.1z"/>
		<path id="path4198" class="st10" d="M881.2-437.4c-0.7,0-0.8,0.7-0.9,1.2c-0.7-0.6-0.7-1.3,0-2.2l5.2-0.1c0.7,0,0.8-0.7,0.9-1.2
			c0.7,0.6,0.7,1.3,0,2.2L881.2-437.4z"/>
		<path id="path4200" class="st11" d="M881.9-438.1c0.4-22.3,14.4-29.7,17.8-31.2c-0.6,0.5-1.2,0.9-1.7,1.4
			c-13.1,10.9-13.5,21.1-13.4,30L881.9-438.1z"/>
		<path id="path4216" class="st12" d="M880.8-412.7h6.2l-5-2.5h6.4h6.4l-5,2.5h6.2h6.2l-5-2.5h6.4h6.4l-5,2.5h6.2h6.2l-5-2.5h6.4
			h6.4l-5,2.5h6.2h6.2l-5-2.5h6.4h6.4l-5,2.5h6.2l0,1.9h-60.7V-412.7z"/>
	</g>
</g>
</svg>
