<?xml version="1.0" encoding="utf-8"?>
<!-- Generator: Adobe Illustrator 27.5.0, SVG Export Plug-In . SVG Version: 6.00 Build 0)  -->
<svg version="1.1" id="Layer_1" xmlns="http://www.w3.org/2000/svg" xmlns:xlink="http://www.w3.org/1999/xlink" x="0px" y="0px"
	 viewBox="0 0 24 24" style="enable-background:new 0 0 24 24;" xml:space="preserve">
<style type="text/css">
	.st0{fill:none;stroke:#00569B;stroke-width:2;stroke-linecap:round;stroke-linejoin:round;}
</style>
<path class="st0" d="M8.3,21C15.8,21,20,14.5,20,8.8c0-0.2,0-0.4,0-0.6c0.8-0.6,1.5-1.4,2-2.2c-0.8,0.3-1.5,0.6-2.4,0.7
	c0.9-0.5,1.5-1.4,1.8-2.4c-0.8,0.5-1.7,0.9-2.6,1c-1.6-1.7-4.2-1.8-5.8-0.2c-1.1,1-1.5,2.6-1.2,4.1C8.6,9.1,5.5,7.5,3.4,4.8
	c-1.1,2-0.5,4.5,1.3,5.7c-0.7,0-1.3-0.2-1.9-0.5l0,0c0,2,1.4,3.8,3.3,4.2c-0.6,0.2-1.2,0.2-1.9,0.1c0.5,1.7,2.1,2.9,3.8,3
	c-1.5,1.2-3.2,1.8-5.1,1.8c-0.3,0-0.7,0-1-0.1C3.9,20.3,6.1,21,8.3,21z"/>
</svg>
